<svg version="1.1" id="Layer_1" xmlns="http://www.w3.org/2000/svg" xmlns:xlink="http://www.w3.org/1999/xlink" x="0px" y="0px"
	 width="100%" viewBox="0 0 1240 550" enable-background="new 0 0 1240 550" xml:space="preserve">
<path fill="#FFFFFF" opacity="1.000000" stroke="none" 
	d="
M927.000000,551.000000 
	C618.000000,551.000000 309.500031,551.000000 1.000041,551.000000 
	C1.000028,367.666687 1.000028,184.333389 1.000014,1.000066 
	C414.333282,1.000044 827.666565,1.000044 1241.000000,1.000022 
	C1241.000000,184.333267 1241.000000,367.666534 1241.000000,550.999878 
	C1136.500000,551.000000 1032.000000,551.000000 927.000000,551.000000 
M898.067810,292.511932 
	C899.675537,302.303925 900.478149,312.321503 903.139099,321.818420 
	C905.372986,329.791290 911.036499,332.503632 919.403015,332.093445 
	C929.219727,331.612152 935.100952,325.578949 937.852844,316.999878 
	C940.887268,307.539978 942.629883,297.667480 944.977722,287.985046 
	C946.937195,279.904541 948.483337,271.586334 954.782593,265.442108 
	C960.717957,259.652832 969.045532,260.642609 972.847534,267.948456 
	C975.193726,272.456909 976.733459,277.482880 977.989624,282.440125 
	C980.518738,292.420868 982.058655,302.683289 985.098999,312.490845 
	C986.710022,317.687683 989.880188,322.863434 993.627686,326.841949 
	C1002.082947,335.818298 1015.725220,333.113647 1020.914795,321.896301 
	C1025.580933,311.810364 1026.007202,300.958405 1026.014038,290.105164 
	C1026.022583,276.671509 1028.968140,264.014404 1035.734497,252.367462 
	C1041.418213,242.584244 1047.406982,232.977493 1053.045410,223.168884 
	C1070.144165,193.423859 1068.014038,161.491653 1046.796997,136.150742 
	C1029.578369,115.585510 1000.481445,107.537117 975.856079,122.771736 
	C971.084900,125.723419 966.708740,129.313492 961.899963,132.790146 
	C960.243286,131.425354 958.587646,130.073364 956.944824,128.706070 
	C944.143799,118.052071 929.618103,113.065498 912.934631,115.639641 
	C879.406738,120.812767 854.689941,157.473801 860.448120,193.657532 
	C862.829224,208.619965 869.550110,221.707596 877.638672,234.247849 
	C888.921814,251.741058 899.162842,269.623932 898.067810,292.511932 
M669.925842,450.274109 
	C670.103516,448.286194 670.355103,446.301697 670.447327,444.309814 
	C671.245850,427.057770 662.728821,415.123016 645.928345,412.917419 
	C634.708557,411.444489 623.138855,412.637604 611.585266,412.637604 
	C611.585266,432.841095 611.585266,453.324036 611.585266,473.921173 
	C621.616394,473.921173 631.271790,474.255371 640.895325,473.844849 
	C656.331299,473.186462 665.775085,465.510345 669.925842,450.274109 
M960.607788,411.757568 
	C949.369934,408.287018 938.499023,408.625000 928.837585,415.965851 
	C918.046692,424.164886 914.028442,439.981018 918.524719,454.511261 
	C923.493835,470.569550 940.159607,479.355865 958.184509,475.420288 
	C972.596252,472.273621 981.027954,463.239624 982.379883,449.190033 
	C978.006104,448.582153 973.617676,447.972229 969.152954,447.351685 
	C968.740417,448.379150 968.387390,449.121796 968.138733,449.897858 
	C964.502930,461.248260 953.601624,466.340118 942.726868,461.755554 
	C932.436829,457.417480 928.414001,441.682251 934.754333,430.572845 
	C938.180786,424.569000 943.528137,422.167450 950.213379,422.584564 
	C956.771057,422.993774 960.862488,426.714081 963.059021,432.737885 
	C963.439941,433.782532 963.823120,434.826385 964.253967,436.003632 
	C968.881592,434.797638 973.130127,433.690430 977.503845,432.550598 
	C975.670654,422.430267 970.341003,415.769531 960.607788,411.757568 
M147.486221,272.500763 
	C147.486221,282.922363 147.486221,293.343933 147.486221,303.654846 
	C150.401184,303.654846 152.622391,303.654846 154.751038,303.654846 
	C154.751038,282.555450 154.751038,261.816864 154.751038,240.755768 
	C153.176956,240.755768 151.826431,240.954514 150.555511,240.720673 
	C145.599655,239.808792 143.356339,241.965714 141.588150,246.632660 
	C137.118317,258.430328 131.944000,269.961090 127.050858,281.598358 
	C125.232788,285.922211 123.411797,290.244904 121.211716,295.471954 
	C120.130203,293.165924 119.471695,291.876251 118.909569,290.545807 
	C112.379845,275.091400 105.802498,259.656494 99.408089,244.146210 
	C98.366913,241.620743 97.183640,240.370987 94.334274,240.702789 
	C92.059685,240.967667 89.729630,240.756256 87.413437,240.756256 
	C87.413437,262.085876 87.413437,282.961578 87.413437,303.820068 
	C89.894363,303.820068 92.024139,303.820068 94.832947,303.820068 
	C94.832947,287.216461 94.832947,270.793304 94.832947,254.370163 
	C96.345901,255.596878 96.990341,256.891937 97.557709,258.219910 
	C103.366188,271.815063 109.173882,285.410553 114.951675,299.018738 
	C116.103111,301.730682 116.693718,304.244263 120.916534,304.235077 
	C124.972832,304.226257 125.881180,302.126221 127.082520,299.268616 
	C132.554428,286.252655 138.132584,273.281372 143.682388,260.298218 
	C144.560654,258.243622 145.489471,256.210602 146.394913,254.167587 
	C146.758789,254.234726 147.122650,254.301865 147.486526,254.368988 
	C147.486526,260.079803 147.486526,265.790649 147.486221,272.500763 
M269.963287,173.999237 
	C270.985443,172.633759 272.322632,171.404419 272.980682,169.881592 
	C279.113342,155.690140 285.120972,141.444687 291.193481,127.227127 
	C291.733612,125.962540 292.475922,124.784286 293.124329,123.565941 
	C293.433655,123.645905 293.742950,123.725876 294.052246,123.805847 
	C294.052246,140.488434 294.052246,157.171036 294.052246,173.728455 
	C296.669220,173.728455 298.760834,173.728455 300.953918,173.728455 
	C300.953918,152.674072 300.953918,131.907349 300.953918,111.168022 
	C290.755280,109.915726 290.765533,109.920013 286.985168,118.960136 
	C280.574249,134.290771 274.148926,149.615402 267.431976,165.653229 
	C266.428955,163.413956 265.668793,161.804382 264.979797,160.164886 
	C258.603668,144.992935 252.291824,129.793457 245.793625,114.674057 
	C245.129074,113.127846 243.548386,111.266098 242.077911,110.930458 
	C239.419525,110.323677 236.523361,110.758698 233.510529,110.758698 
	C233.510529,132.012741 233.510529,152.762985 233.510529,173.764374 
	C235.975372,173.764374 238.212509,173.764374 241.043640,173.764374 
	C241.043640,156.978027 241.043640,140.376373 241.043640,123.774719 
	C248.243225,138.644958 254.768631,153.536819 260.902313,168.588333 
	C262.563324,172.664322 264.491272,175.063065 269.963287,173.999237 
M822.006042,243.275345 
	C821.955505,242.778015 821.926025,242.277481 821.851257,241.783813 
	C814.362305,192.333572 828.507629,149.989838 863.856934,114.754189 
	C874.186218,104.458046 886.117371,96.282524 899.156006,89.667793 
	C900.683533,88.892914 902.363953,85.849060 901.971313,84.399239 
	C901.175354,81.460167 898.613953,82.148430 896.280640,83.403717 
	C843.638733,111.724228 815.140930,155.389908 812.925415,215.419617 
	C811.952332,241.786896 818.479309,266.559814 831.140076,289.701294 
	C832.400330,292.004822 833.632996,295.127808 837.029114,293.479980 
	C840.481079,291.805054 838.852417,289.011871 837.523193,286.649994 
	C830.026550,273.329529 825.101501,259.082306 822.006042,243.275345 
M1083.553223,130.047943 
	C1081.956421,130.465530 1079.833862,130.424210 1078.936401,131.452271 
	C1078.270996,132.214523 1079.017700,134.422440 1079.474121,135.880356 
	C1079.809082,136.950424 1080.708740,137.838791 1081.330200,138.824875 
	C1108.046021,181.221390 1112.534058,225.832947 1094.041992,272.431824 
	C1085.271851,294.532043 1070.980347,312.796722 1052.734863,327.998474 
	C1050.581909,329.792267 1047.687744,331.818115 1050.609131,334.888458 
	C1053.306519,337.723328 1055.407715,334.905121 1057.372803,333.274200 
	C1118.468262,282.568848 1130.085083,194.293274 1083.553223,130.047943 
M865.608887,459.320587 
	C865.516235,454.166107 865.604187,449.000488 865.288086,443.859741 
	C864.828125,436.378754 860.585205,431.514587 853.693542,429.180176 
	C846.353210,426.693817 838.877686,426.847382 831.783020,430.112976 
	C826.259338,432.655487 822.491760,436.793121 821.880859,443.579407 
	C826.335754,444.233704 830.391479,444.829346 834.333130,445.408234 
	C837.514587,438.372894 842.133972,435.644073 847.648438,438.083771 
	C849.616455,438.954498 850.721191,441.776550 852.220032,443.707916 
	C850.449768,444.817108 848.812317,446.444489 846.884399,446.938812 
	C840.959412,448.458191 834.721252,448.961945 828.984009,450.953003 
	C822.574036,453.177551 819.623535,458.573395 820.418396,464.049988 
	C821.282776,470.005798 826.066406,474.177002 832.912415,475.041168 
	C840.787476,476.035248 847.346985,473.691803 852.263123,467.076904 
	C856.121399,476.403107 865.881775,478.056335 874.281616,470.899475 
	C873.405151,468.932037 872.481750,466.859406 871.570374,464.813568 
	C866.042175,466.697754 865.898193,466.579102 865.608887,459.320587 
M705.912354,428.421722 
	C692.619690,426.204071 682.794739,429.952545 677.959290,439.383148 
	C673.507202,448.066345 673.708374,456.885651 679.172424,464.944733 
	C685.309998,473.997223 694.746765,476.468689 705.054993,475.528687 
	C712.272888,474.870514 718.871765,472.396240 723.179260,465.609100 
	C720.553894,463.592407 718.202881,461.786438 715.838379,459.970093 
	C710.101929,465.337189 703.753357,467.481934 696.433350,464.841583 
	C692.341187,463.365448 689.548828,460.513916 689.087402,455.305237 
	C700.110596,455.305237 710.855225,455.305237 721.497437,455.305237 
	C723.901184,442.173065 718.394714,432.543518 705.912354,428.421722 
M142.516113,150.929092 
	C142.653000,145.953949 143.311279,140.927017 142.823288,136.013947 
	C141.638351,124.084267 134.057541,114.417511 122.372246,112.464348 
	C110.891174,110.545303 99.041039,110.834282 87.338837,110.153496 
	C87.338837,132.157745 87.338837,152.904205 87.338837,173.771042 
	C97.074089,173.771042 106.587677,174.426010 115.975685,173.619446 
	C130.515549,172.370255 139.061401,164.751617 142.516113,150.929092 
M749.558655,429.846802 
	C747.003662,431.844452 744.448608,433.842102 741.694214,435.995636 
	C740.957275,433.771698 740.210510,431.517975 739.543823,429.505951 
	C735.692627,429.505951 732.274597,429.505951 728.674927,429.505951 
	C728.674927,444.415253 728.674927,458.999023 728.674927,473.716492 
	C733.148926,473.716492 737.371704,473.716492 741.955139,473.716492 
	C741.955139,465.288635 741.834961,457.157318 741.994751,449.031494 
	C742.114014,442.966522 746.092834,439.035156 751.593750,439.097229 
	C756.513855,439.152771 759.019653,442.365723 759.049133,448.811096 
	C759.086914,457.083893 759.058350,465.356964 759.058350,473.688660 
	C763.805115,473.688660 768.015564,473.688660 772.242371,473.688660 
	C772.242371,462.398193 772.483765,451.430481 772.147217,440.480499 
	C771.960571,434.409363 768.553284,429.822418 762.416382,428.816071 
	C758.501953,428.174103 754.313843,429.200562 749.558655,429.846802 
M1029.880249,429.326477 
	C1029.585815,432.380035 1029.063232,435.431641 1029.037354,438.487457 
	C1028.937622,450.233643 1028.996948,461.981171 1028.996948,473.762146 
	C1033.672974,473.762146 1037.760254,473.762146 1042.265259,473.762146 
	C1042.265259,468.748688 1042.191284,463.964294 1042.287231,459.183319 
	C1042.373779,454.872925 1042.247314,450.500488 1042.943237,446.275421 
	C1043.725586,441.524902 1048.251343,438.570740 1052.874512,439.129883 
	C1057.817749,439.727661 1059.444580,443.186554 1059.647827,447.550568 
	C1059.825684,451.368805 1059.710815,455.200928 1059.715332,459.026917 
	C1059.720947,463.934174 1059.716675,468.841431 1059.716675,473.744171 
	C1064.498291,473.744171 1068.577637,473.744171 1072.905396,473.744171 
	C1072.905396,462.710480 1073.207153,451.921936 1072.806519,441.159546 
	C1072.505737,433.082611 1066.854736,428.270935 1058.720093,428.003387 
	C1051.647461,427.770721 1046.461548,431.139771 1041.515137,437.972443 
	C1042.650635,428.878601 1037.771484,428.631287 1032.289795,429.198608 
	C1031.795532,429.249756 1031.292358,429.215729 1029.880249,429.326477 
M1144.650879,464.005951 
	C1145.431396,461.568970 1146.211914,459.131989 1147.108765,456.331726 
	C1142.483887,455.741089 1138.595703,455.244568 1134.633057,454.738525 
	C1133.258301,460.336121 1130.464355,464.093903 1124.998047,464.794250 
	C1120.679565,465.347504 1117.046631,463.617157 1114.860352,459.805511 
	C1111.727173,454.343414 1111.664307,448.598236 1114.845581,443.178131 
	C1118.704224,436.603851 1127.401245,436.931213 1131.045898,443.610107 
	C1131.657593,444.730865 1132.126099,445.929749 1132.747314,447.280823 
	C1136.611328,446.258118 1140.259277,445.292603 1144.997070,444.038605 
	C1143.166626,440.720428 1142.008057,437.598724 1140.008545,435.169434 
	C1130.574219,423.708008 1110.111572,425.563843 1102.668579,438.397156 
	C1096.004639,449.887115 1099.375244,465.674194 1109.868652,472.121124 
	C1121.324341,479.159332 1136.623047,475.824951 1144.650879,464.005951 
M790.971130,472.651794 
	C797.099609,476.417847 803.745239,477.192535 810.028809,473.952148 
	C819.500122,469.067902 819.431274,468.136292 813.754456,460.157959 
	C812.545776,461.259064 811.458435,462.534424 810.115051,463.422455 
	C805.253784,466.636017 798.890747,464.681030 798.327820,459.301361 
	C797.648376,452.808228 798.166992,446.189758 798.166992,439.155273 
	C804.334656,439.155273 809.923767,439.155273 815.357178,439.155273 
	C815.357178,435.588287 815.357178,432.522461 815.357178,428.999237 
	C809.385071,428.999237 803.810669,428.999237 797.789307,428.999237 
	C797.789307,423.812012 797.789307,419.089447 797.789307,414.096649 
	C793.098083,415.151001 788.917542,416.090607 784.423767,417.100616 
	C784.423767,421.185303 784.423767,424.949768 784.423767,428.978668 
	C781.473877,429.145630 778.906921,429.290955 776.459534,429.429504 
	C776.459534,432.993744 776.459534,436.054840 776.459534,439.194824 
	C779.232788,439.386993 781.657715,439.555023 784.555725,439.755829 
	C784.555725,446.078766 784.528809,452.033691 784.563477,457.988281 
	C784.595520,463.493469 785.646545,468.605743 790.971130,472.651794 
M336.940247,116.423279 
	C325.134033,127.714020 325.112732,147.896820 330.710785,159.219009 
	C336.659180,171.249832 348.465790,177.127426 364.656128,175.987442 
	C378.750671,174.995026 390.420166,163.874039 391.070221,150.481735 
	C388.958069,149.998489 386.799622,149.504669 384.676697,149.018967 
	C379.249054,167.749710 362.033417,175.115280 346.410645,165.835114 
	C337.457886,160.517044 332.965302,148.591904 335.132721,135.898819 
	C337.204285,123.766937 344.833344,116.483788 356.737427,115.273697 
	C367.199371,114.210190 374.333252,119.411728 378.828217,131.350525 
	C378.924713,131.606827 379.300659,131.757904 379.810059,132.173035 
	C381.670685,131.694656 383.712677,131.169647 386.085663,130.559540 
	C385.324249,128.371063 384.806915,126.453316 384.009796,124.659920 
	C376.240570,107.180595 353.785431,102.985634 336.940247,116.423279 
M676.102295,262.842590 
	C676.112000,271.170593 675.922668,279.504700 676.178833,287.825104 
	C676.548706,299.841278 684.020447,308.131561 694.863098,307.389221 
	C700.100220,307.030701 705.153992,303.993713 710.074951,302.246124 
	C710.694885,308.990204 708.114258,314.131958 702.161072,316.801697 
	C693.626343,320.629181 684.767883,318.008331 676.441162,309.112213 
	C674.744690,310.315216 673.033508,311.528656 671.370728,312.707703 
	C676.794434,323.022736 691.511902,327.557953 704.007507,323.051270 
	C711.211853,320.452881 716.391113,315.290985 716.703430,307.828278 
	C717.382751,291.593079 716.913086,275.309814 716.913086,259.099731 
	C714.573425,259.099731 712.516663,259.099731 710.140808,259.099731 
	C710.140808,268.990173 710.415161,278.487823 710.056030,287.961426 
	C709.756042,295.875458 703.343262,301.329315 695.391479,301.215668 
	C687.999207,301.110077 683.399963,296.119598 683.049927,287.789246 
	C682.987061,286.292633 683.022095,284.791656 683.021729,283.292694 
	C683.019714,275.199921 683.020752,267.107147 683.020752,258.234833 
	C680.261047,259.834167 675.987732,256.103394 676.102295,262.842590 
M598.726196,137.619232 
	C598.790161,145.115128 598.598816,152.624374 598.990540,160.103119 
	C599.376160,167.465881 602.879761,173.210312 609.894043,176.069260 
	C616.918335,178.932297 623.599182,177.973419 629.546143,173.052444 
	C630.576477,172.199875 631.574768,171.308502 632.899109,170.166718 
	C633.226624,177.766281 631.629089,184.120987 624.487000,186.741867 
	C614.436035,190.430130 605.574707,188.285110 599.140747,178.968872 
	C597.117920,180.382660 595.413208,181.574081 593.759155,182.730118 
	C599.039795,191.965561 608.985840,195.983307 621.319214,194.253098 
	C632.248901,192.719788 639.180603,186.175598 639.589355,175.180191 
	C640.157410,159.897598 639.732178,144.578079 639.732178,128.982880 
	C637.449219,128.982880 635.364929,128.982880 633.335693,128.982880 
	C633.163452,129.460907 632.960571,129.763611 632.958923,130.067413 
	C632.929688,135.565430 633.009399,141.065460 632.888611,146.561157 
	C632.786560,151.204529 633.028259,155.960510 632.100830,160.456879 
	C630.586304,167.799347 623.974915,171.909332 616.319458,171.108566 
	C609.941589,170.441467 606.100403,165.864273 605.707825,158.180511 
	C605.512573,154.357697 605.615540,150.518997 605.607788,146.687439 
	C605.595825,140.769241 605.604614,134.851028 605.604614,128.974472 
	C602.909424,128.974472 600.987122,128.974472 598.726501,128.974472 
	C598.726501,131.725189 598.726501,134.196091 598.726196,137.619232 
M402.016602,305.603912 
	C413.103424,303.442200 419.752106,297.040649 421.780243,286.574890 
	C423.750305,276.408722 419.821655,265.517059 411.727081,260.682037 
	C400.747314,254.123611 390.586670,255.734055 381.400757,265.864014 
	C381.108398,263.085968 380.907379,261.175873 380.685333,259.065979 
	C378.699615,259.065979 376.838196,259.065979 375.046814,259.065979 
	C375.046814,280.495789 375.046814,301.557953 375.046814,322.705383 
	C377.263580,322.705383 379.205200,322.705383 381.855347,322.705383 
	C381.855347,314.362488 381.855347,306.222534 381.855347,297.056122 
	C387.562073,303.600830 393.664978,306.368530 402.016602,305.603912 
M550.510498,300.949341 
	C560.409363,308.619049 572.013550,307.381012 581.829590,297.420502 
	C582.305786,301.670227 584.022400,305.519806 588.433167,305.547882 
	C591.820374,305.569458 595.220276,303.605621 599.477478,302.249939 
	C597.343018,299.711243 596.320496,298.495026 595.331238,297.318420 
	C590.155334,300.410309 589.021729,299.839478 588.972046,294.307159 
	C588.922729,288.818634 588.628174,283.305359 589.021606,277.844788 
	C590.261902,260.628204 577.523254,255.828537 565.537598,257.098785 
	C556.058533,258.103363 548.941772,264.088043 548.306702,271.575592 
	C550.008118,272.274109 551.772644,272.998505 553.606079,273.751251 
	C554.028992,272.830383 554.288147,272.231445 554.575256,271.646210 
	C558.685425,263.269043 571.323608,260.051453 578.456543,265.968689 
	C580.317200,267.512207 581.299011,270.640106 581.625183,273.176575 
	C581.718628,273.902618 578.198181,275.532074 576.161377,276.013489 
	C569.246277,277.647980 561.939209,278.117706 555.366394,280.587799 
	C546.212219,284.028015 544.413330,292.282715 550.510498,300.949341 
M1084.830200,70.230698 
	C1079.348633,74.143150 1073.815063,77.986160 1068.419312,82.013657 
	C1066.950195,83.110146 1064.889160,84.793175 1064.930542,86.151062 
	C1064.973267,87.548180 1067.003174,89.496521 1068.593018,90.135338 
	C1079.075317,94.347458 1086.248901,101.639061 1090.506226,112.067154 
	C1091.160034,113.668739 1093.272949,115.935745 1094.415405,115.776276 
	C1096.059814,115.546722 1098.102905,113.659149 1098.812378,111.985893 
	C1103.122437,101.821938 1110.047607,94.523567 1120.390381,90.379349 
	C1122.137329,89.679337 1124.401001,87.621094 1124.455566,86.118622 
	C1124.506348,84.724701 1122.086060,83.009659 1120.466919,81.829338 
	C1115.545166,78.241417 1109.990601,75.359673 1105.645020,71.197891 
	C1102.543335,68.227333 1101.131592,63.545982 1098.682129,59.814213 
	C1097.695923,58.311596 1096.066650,56.572128 1094.513550,56.330162 
	C1093.462402,56.166401 1091.727539,58.234119 1090.835693,59.643650 
	C1088.798218,62.863899 1087.090698,66.292847 1084.830200,70.230698 
M428.605713,273.229492 
	C425.138885,287.750732 431.207855,300.129333 443.855896,304.334534 
	C456.259674,308.458466 469.236755,303.765564 473.791290,293.319580 
	C471.999268,292.574860 470.211853,291.832062 468.524872,291.130981 
	C461.500824,299.020691 453.841980,301.354950 445.694794,298.267761 
	C439.213715,295.811920 435.264740,290.417053 435.354767,283.556854 
	C447.743896,283.556854 460.151276,283.556854 472.492188,283.556854 
	C473.538879,270.110901 466.552948,259.701599 455.306549,257.308380 
	C443.834015,254.867035 433.295074,260.903717 428.605713,273.229492 
M514.425842,174.004349 
	C514.968384,172.692749 515.950684,171.391113 515.980713,170.067886 
	C516.150635,162.583420 515.832581,155.081757 516.177795,147.608917 
	C516.602966,138.407776 523.260803,132.585190 532.302002,132.958908 
	C539.750427,133.266785 543.274597,137.933777 543.323853,147.694611 
	C543.367371,156.316315 543.332947,164.938400 543.332947,173.776505 
	C545.863770,173.776505 547.935852,173.776505 550.048157,173.776505 
	C550.048157,162.737137 550.425781,151.922028 549.927246,141.147461 
	C549.536987,132.711716 543.225708,127.439026 534.742310,126.940125 
	C527.482666,126.513168 521.520508,129.063232 515.972107,135.307983 
	C515.972107,125.530495 515.972107,116.846779 515.972107,108.229057 
	C513.473511,108.229057 511.536957,108.229057 509.375763,108.229057 
	C509.375763,130.171158 509.375763,151.878418 509.375763,173.820236 
	C510.906342,173.893478 512.200317,173.955399 514.425842,174.004349 
M397.986542,152.499878 
	C397.986542,159.605560 397.986542,166.711227 397.986542,173.798996 
	C400.530212,173.798996 402.471130,173.798996 404.595825,173.798996 
	C404.712372,172.988266 404.877869,172.359787 404.881805,171.730286 
	C404.933746,163.402191 404.699677,155.062180 405.071442,146.749039 
	C405.449463,138.294983 412.227478,132.660080 420.928253,132.947769 
	C428.302643,133.191574 432.013672,137.883286 432.095978,147.075912 
	C432.109406,148.575012 432.099548,150.074326 432.099609,151.573532 
	C432.099792,158.997406 432.099701,166.421265 432.099701,173.789764 
	C434.764099,173.789764 436.707733,173.789764 438.888092,173.789764 
	C438.888092,162.786423 439.353729,151.974670 438.742401,141.224152 
	C438.243561,132.451782 431.824524,127.383537 423.045044,126.918701 
	C416.013428,126.546402 410.380066,129.404007 404.807007,134.835495 
	C404.807007,125.267159 404.807007,116.847778 404.807007,108.299759 
	C402.364136,108.299759 400.318909,108.299759 397.986542,108.299759 
	C397.986542,122.897186 397.986542,137.198578 397.986542,152.499878 
M361.300598,262.222626 
	C360.101837,261.331360 359.000214,260.249481 357.688110,259.580536 
	C350.520203,255.926239 343.300629,255.662628 336.307709,259.945190 
	C331.984528,262.592773 329.896545,266.717285 330.253723,271.763947 
	C330.612732,276.835815 333.765869,280.027100 338.424194,281.411682 
	C344.306915,283.160278 350.448944,284.107361 356.211487,286.153870 
	C358.433990,286.943176 361.335358,289.782135 361.360748,291.720886 
	C361.388000,293.802612 358.828125,296.743896 356.650574,297.883850 
	C347.896027,302.466949 338.273773,298.583435 333.998901,288.947845 
	C332.046387,289.393036 330.022980,289.854340 327.940704,290.329102 
	C328.457520,295.805634 331.088318,299.478851 335.275940,302.035950 
	C341.886078,306.072296 349.035370,306.799500 356.429199,304.812469 
	C363.783081,302.836212 368.505554,297.113464 368.384064,290.664368 
	C368.275970,284.927185 364.592712,281.192749 356.571136,279.072174 
	C351.915222,277.841400 347.040344,277.312927 342.527618,275.721161 
	C340.370056,274.960114 337.183105,272.245087 337.373016,270.796753 
	C337.690186,268.378113 339.876404,265.424713 342.104034,264.186493 
	C348.157043,260.821991 354.088867,263.372681 359.657928,271.020569 
	C361.408508,270.435455 363.209930,269.833344 365.665527,269.012573 
	C364.180725,266.603485 362.992340,264.675354 361.300598,262.222626 
M489.117279,128.094833 
	C483.511932,126.404121 477.969238,126.280350 472.585632,128.893936 
	C467.249786,131.484299 464.565155,136.054321 464.851440,141.712418 
	C465.143768,147.490433 468.999847,150.187256 473.802643,151.802719 
	C476.936615,152.856827 480.283722,153.259674 483.498840,154.094925 
	C486.542236,154.885559 489.695007,155.520966 492.519073,156.829956 
	C497.129944,158.967148 497.489899,163.682510 493.361450,166.690414 
	C491.806183,167.823563 489.836456,168.611160 487.940399,169.015274 
	C478.906158,170.940720 473.857239,168.334427 468.105896,158.946014 
	C466.271729,159.439209 464.390839,159.944962 461.930450,160.606537 
	C463.076874,163.195740 463.740906,165.653625 465.108521,167.622894 
	C472.030792,177.590454 491.288422,178.732437 499.408173,169.779724 
	C499.742065,169.411621 500.028961,168.999420 500.323334,168.597198 
	C505.330719,161.755020 503.379211,153.767776 495.308502,150.713959 
	C489.452118,148.498001 483.025482,147.814240 477.102325,145.736725 
	C474.865997,144.952377 471.911255,142.207382 471.861969,140.289902 
	C471.809479,138.248077 474.392883,135.363022 476.554810,134.186859 
	C482.755371,130.813477 489.181580,133.549713 493.980835,141.052765 
	C495.769196,140.485092 497.605072,139.902328 499.611725,139.265366 
	C498.270996,133.557114 494.607697,130.483170 489.117279,128.094833 
M1020.171753,352.102173 
	C1018.261108,348.740112 1015.734924,350.544312 1013.203552,351.132843 
	C1000.134277,354.171509 987.172302,358.368164 973.920227,359.766907 
	C951.986389,362.082001 930.469055,358.593872 909.885437,350.265442 
	C907.358643,349.243042 904.479858,348.103943 903.198242,351.695557 
	C902.040649,354.939545 904.763123,355.984558 907.152344,356.911072 
	C943.829224,371.134033 980.530273,370.871216 1017.175964,356.882874 
	C1018.582947,356.345825 1019.368896,354.181885 1020.171753,352.102173 
M172.854813,303.894592 
	C182.714081,308.006958 191.226212,305.644012 198.659943,297.963043 
	C199.019562,300.250488 199.293472,301.992706 199.583969,303.840515 
	C201.658997,303.840515 203.443085,303.840515 205.428955,303.840515 
	C205.428955,288.803741 205.428955,273.944000 205.428955,258.923828 
	C203.162613,258.923828 201.225159,258.923828 198.797119,258.923828 
	C198.797119,267.764130 199.121887,276.399811 198.708817,285.000092 
	C198.266296,294.213226 191.308334,300.317352 182.643036,299.857056 
	C175.128586,299.457947 171.540527,294.568512 171.498657,284.559387 
	C171.463333,276.110596 171.491379,267.661560 171.491379,259.002014 
	C168.973984,259.002014 166.917450,259.002014 164.864914,259.002014 
	C164.864914,270.088928 164.667633,280.877197 164.951462,291.652771 
	C165.085358,296.735382 167.754120,300.798431 172.854813,303.894592 
M988.820801,409.243591 
	C988.492249,410.780487 987.890869,412.315247 987.878845,413.854614 
	C987.795471,424.493530 987.834961,435.133423 987.834961,445.772980 
	C987.834961,455.034180 987.834961,464.295380 987.834961,473.652008 
	C992.491272,473.652008 996.686523,473.652008 1000.632751,473.652008 
	C1000.632751,451.964996 1000.632751,430.628265 1000.632751,409.152344 
	C996.731079,409.152344 993.247498,409.152344 988.820801,409.243591 
M891.261230,458.497437 
	C891.261230,442.130737 891.261230,425.764038 891.261230,409.476440 
	C886.371399,409.476440 882.309631,409.476440 878.359253,409.476440 
	C878.359253,431.164001 878.359253,452.511536 878.359253,473.700989 
	C882.814209,473.700989 886.905701,473.700989 891.261292,473.700989 
	C891.261292,468.767975 891.261292,464.132233 891.261230,458.497437 
M648.627380,286.411469 
	C648.627380,279.140015 648.627380,271.868561 648.627380,264.161194 
	C655.792297,264.161194 662.209717,264.161194 668.928650,264.161194 
	C668.838440,262.112091 668.769165,260.537994 668.678711,258.483826 
	C661.893250,258.483826 655.483887,258.483826 648.588257,258.483826 
	C648.588257,253.415237 648.588257,248.830017 648.588257,243.639175 
	C645.943542,244.255402 643.916260,244.727783 641.456909,245.300842 
	C641.456909,249.785080 641.456909,254.025055 641.456909,258.693604 
	C638.019043,258.693604 635.087585,258.693604 632.010620,258.693604 
	C632.010620,260.734131 632.010620,262.322662 632.010620,264.542175 
	C635.273010,264.542175 638.332153,264.542175 641.826355,264.542175 
	C641.826355,274.301453 641.626648,283.438690 641.886536,292.562866 
	C642.114380,300.562164 647.766663,305.723694 655.782471,305.860840 
	C664.008240,306.001556 670.414429,300.742950 671.395813,292.812317 
	C669.819153,292.211060 668.185730,291.588135 666.569702,290.971863 
	C663.627808,297.851501 659.880615,300.627289 655.123962,299.695251 
	C650.393616,298.768402 648.704773,295.696869 648.627197,287.878876 
	C648.625549,287.712341 648.627136,287.545807 648.627380,286.411469 
M572.272949,174.470840 
	C580.900940,179.038849 594.692139,172.154083 593.988220,162.705963 
	C592.493713,162.161743 590.872009,161.571198 589.401611,161.035767 
	C588.339355,163.034958 587.885071,165.354568 586.553833,166.092834 
	C583.707214,167.671448 580.399292,169.323425 577.294312,169.297073 
	C573.581604,169.265564 571.572754,165.838348 571.483032,162.265244 
	C571.254578,153.170197 571.406982,144.065567 571.406982,134.254211 
	C578.356140,134.254211 584.879395,134.254211 591.448975,134.254211 
	C591.448975,132.079956 591.448975,130.632584 591.448975,128.501724 
	C584.691956,128.501724 578.141113,128.501724 571.120544,128.501724 
	C571.120544,123.261200 571.120544,118.692574 571.120544,113.635025 
	C568.523499,114.286201 566.522400,114.787941 564.069946,115.402863 
	C564.069946,119.963120 564.069946,124.189178 564.069946,128.870880 
	C560.586060,128.870880 557.668945,128.870880 554.386597,128.870880 
	C554.513916,130.927948 554.610291,132.484726 554.734741,134.495667 
	C558.082825,134.495667 560.993103,134.495667 564.369568,134.495667 
	C564.369568,143.264969 564.365417,151.557297 564.370972,159.849625 
	C564.375000,165.818909 565.740234,171.105560 572.272949,174.470840 
M518.679443,300.225159 
	C522.331055,296.953033 525.062073,293.180359 525.582703,287.790649 
	C523.438538,287.380524 521.520447,287.013672 519.672058,286.660156 
	C514.944397,297.077484 508.892944,300.757202 499.480804,299.138275 
	C491.936890,297.840729 486.513275,291.506683 485.982391,283.374054 
	C485.358337,273.814240 489.513245,266.355988 496.756836,264.033478 
	C504.657898,261.500122 510.477539,264.385834 516.230042,273.823151 
	C518.057434,273.388214 519.951294,272.937439 522.062683,272.434906 
	C521.853699,271.396973 521.813049,270.567902 521.521362,269.839386 
	C515.593079,255.034943 494.518890,252.237396 484.366364,264.892578 
	C476.792755,274.333130 477.218689,289.830109 485.291382,298.548889 
	C493.308807,307.208008 506.994293,308.105469 518.679443,300.225159 
M226.401596,258.991974 
	C226.291870,260.683350 226.182129,262.374725 226.050781,264.399231 
	C229.669281,264.399231 232.630844,264.399231 236.010742,264.399231 
	C236.010742,274.004425 235.825577,283.309174 236.067642,292.602783 
	C236.272034,300.449860 242.116028,305.743866 250.066742,305.848053 
	C258.316620,305.956146 264.807037,300.591644 265.614868,292.799744 
	C264.037354,292.202484 262.410706,291.586639 261.038605,291.067200 
	C259.673767,293.341156 258.997528,295.879669 257.385712,296.827972 
	C254.862564,298.312469 251.463196,299.823944 248.892105,299.255737 
	C246.624344,298.754486 243.466003,295.520050 243.325775,293.324829 
	C242.715378,283.767975 243.063614,274.149902 243.063614,264.146057 
	C249.923798,264.146057 256.341766,264.146057 262.770416,264.146057 
	C262.770416,262.138214 262.770416,260.551636 262.770416,258.538513 
	C256.089508,258.538513 249.675003,258.538513 242.878738,258.538513 
	C242.878738,253.501999 242.878738,248.888504 242.878738,243.663742 
	C240.241608,244.288086 238.123337,244.789581 235.872314,245.322510 
	C235.872314,249.977600 235.872314,254.113495 235.872314,258.751740 
	C232.819534,258.751740 230.028397,258.751740 226.401596,258.991974 
M839.225525,363.606750 
	C843.286682,360.091400 843.330261,358.163177 838.713379,355.992310 
	C832.222717,352.940308 827.455505,348.543884 824.705811,341.820709 
	C824.146851,340.453918 822.197021,339.002472 820.763611,338.861908 
	C819.694397,338.757019 817.859985,340.474640 817.338074,341.771606 
	C814.628113,348.506012 809.897705,353.007874 803.372009,355.995911 
	C801.965515,356.639923 800.082153,358.678589 800.262329,359.770569 
	C800.520935,361.337677 802.201599,363.265869 803.748718,363.919830 
	C809.943054,366.538269 814.100098,370.900452 816.909729,376.922028 
	C817.655396,378.520111 819.766052,380.823425 820.834778,380.620117 
	C822.519104,380.299713 824.436157,378.402893 825.228455,376.696808 
	C828.044983,370.632172 832.278809,366.276703 839.225525,363.606750 
M1021.737122,462.474731 
	C1021.737122,451.544830 1021.737122,440.614899 1021.737122,429.540802 
	C1016.962585,429.540802 1012.767090,429.540802 1008.483032,429.540802 
	C1008.483032,444.474335 1008.483032,459.034790 1008.483032,473.692932 
	C1012.967529,473.692932 1017.177246,473.692932 1021.737000,473.692932 
	C1021.737000,470.066864 1021.737000,466.765656 1021.737122,462.474731 
M1092.952026,429.875305 
	C1088.765747,429.588257 1084.579468,429.301178 1080.294556,429.007385 
	C1080.294556,444.446594 1080.294556,459.023804 1080.294556,473.619080 
	C1084.748901,473.619080 1088.943970,473.619080 1093.236206,473.619080 
	C1093.236206,459.082855 1093.236206,444.932861 1092.952026,429.875305 
M180.542984,130.962357 
	C171.778824,123.358963 164.337936,126.695633 157.458359,134.530319 
	C157.121857,132.170425 156.894302,130.574478 156.675766,129.041840 
	C154.631058,129.041840 152.885300,129.041840 151.243652,129.041840 
	C151.243652,144.149826 151.243652,158.925140 151.243652,173.656830 
	C153.563278,173.656830 155.604233,173.656830 157.929428,173.656830 
	C157.929428,164.992874 157.656998,156.668106 158.058014,148.375885 
	C158.228287,144.855042 159.306870,141.152084 160.882095,137.984100 
	C162.729889,134.267990 166.537781,132.838531 170.636520,133.273712 
	C174.757812,133.711304 177.043381,136.452515 178.059296,140.355743 
	C178.256668,141.114044 178.572174,141.841583 178.929779,142.857742 
	C180.862808,142.183990 182.534271,141.601395 185.113785,140.702316 
	C183.640442,137.406158 182.327087,134.467880 180.542984,130.962357 
M978.710632,68.923019 
	C961.182373,66.708122 943.881653,68.313423 926.796997,72.387024 
	C925.105530,72.790329 923.901794,75.238998 922.471680,76.738319 
	C924.347473,77.553596 926.318237,79.225426 928.081848,79.029716 
	C934.333069,78.336075 940.483032,76.768509 946.726929,75.962524 
	C961.189209,74.095673 975.562378,75.197540 989.911926,77.505402 
	C991.461426,77.754585 993.337891,75.970619 995.062683,75.129784 
	C993.848694,73.693115 992.877747,71.421936 991.373047,70.983696 
	C987.580383,69.879120 983.547180,69.600647 978.710632,68.923019 
M220.967102,238.365875 
	C218.901154,238.253967 216.835205,238.142059 214.729889,238.028000 
	C214.729889,260.318420 214.729889,282.041992 214.729889,303.834717 
	C217.048218,303.834717 219.008621,303.834717 221.251755,303.834717 
	C221.251755,282.157837 221.251755,260.677490 220.967102,238.365875 
M1029.588501,71.839073 
	C1027.272827,71.690575 1025.567627,72.300819 1025.878052,75.086754 
	C1026.291870,78.798889 1025.083008,80.755669 1020.958923,80.389503 
	C1016.514648,79.994896 1017.084717,83.276955 1017.011047,86.119171 
	C1016.936279,89.004082 1016.945068,91.604202 1021.019775,91.175987 
	C1024.278809,90.833496 1026.253784,92.108147 1025.834106,95.661301 
	C1025.315186,100.054367 1028.096313,99.943710 1031.140015,99.912247 
	C1034.112793,99.881508 1037.083740,100.136833 1036.664795,95.754440 
	C1036.372314,92.693848 1037.473755,90.813210 1040.801636,91.200211 
	C1045.047729,91.693985 1045.201538,89.191124 1045.187012,86.002274 
	C1045.171875,82.713402 1045.158569,80.090431 1040.635376,80.183846 
	C1039.340088,80.210594 1036.821167,78.227333 1036.884888,77.305244 
	C1037.233643,72.249229 1034.622925,71.311089 1029.588501,71.839073 
M603.129883,277.500000 
	C603.129883,286.264954 603.129883,295.029938 603.129883,303.809082 
	C605.726196,303.809082 607.666992,303.809082 610.050110,303.809082 
	C610.050110,301.819763 610.050110,300.029877 610.050110,298.240021 
	C610.050110,278.300507 610.050110,258.360992 610.050110,238.311325 
	C607.557617,238.311325 605.515503,238.311325 603.129883,238.311325 
	C603.129883,251.247787 603.129883,263.873901 603.129883,277.500000 
M455.142853,146.500870 
	C455.142853,140.712097 455.142853,134.923340 455.142853,129.008316 
	C452.652405,129.008316 450.576660,129.008316 448.486328,129.008316 
	C448.486328,144.079117 448.486328,158.827698 448.486328,173.707413 
	C450.788177,173.707413 452.832001,173.707413 455.142883,173.707413 
	C455.142883,164.762695 455.142883,156.131653 455.142853,146.500870 
M538.244324,303.993347 
	C538.765381,302.295959 539.722229,300.602661 539.738281,298.900513 
	C539.863403,285.643951 539.807495,272.385712 539.807495,259.051147 
	C537.182373,259.051147 535.135681,259.051147 533.159546,259.051147 
	C533.159546,274.174316 533.159546,288.935944 533.159546,304.018524 
	C534.722717,304.018524 536.022400,304.018524 538.244324,303.993347 
M842.879883,325.778931 
	C846.008057,325.628357 848.533630,326.005035 848.121948,330.244659 
	C848.053467,330.950684 849.577820,332.257660 850.579956,332.547302 
	C856.133606,334.152466 856.591187,329.966644 857.027405,326.318024 
	C863.667236,325.412140 863.681213,325.390533 862.566162,317.949585 
	C860.760803,317.575348 858.867493,317.182892 857.065063,316.809296 
	C855.668579,309.976013 854.656494,309.405579 849.405212,311.275299 
	C847.866028,313.795227 847.174500,316.537323 845.668884,317.099579 
	C840.544678,319.013123 839.996338,319.704346 842.879883,325.778931 
M619.684082,268.517822 
	C619.684082,280.239929 619.684082,291.962036 619.684082,303.718628 
	C622.223572,303.718628 624.133972,303.718628 625.963196,303.718628 
	C625.963196,288.608856 625.963196,273.783051 625.963196,259.164764 
	C623.650085,259.164764 621.758728,259.164764 619.684021,259.164764 
	C619.684021,262.218994 619.684021,264.870178 619.684082,268.517822 
M278.378143,298.431458 
	C278.378143,285.361664 278.378143,272.291870 278.378143,259.029297 
	C275.933899,259.029297 274.040741,259.029297 272.043030,259.029297 
	C272.043030,274.117889 272.043030,288.935699 272.043030,303.681213 
	C274.318176,303.681213 276.228790,303.681213 278.378204,303.681213 
	C278.378204,302.048218 278.378204,300.732574 278.378143,298.431458 
M321.502258,278.870911 
	C320.131500,278.335297 318.778534,277.399750 317.386719,277.337860 
	C312.921722,277.139374 308.442352,277.264069 303.968536,277.264038 
	C298.750793,277.264038 293.533081,277.264008 288.384064,277.264008 
	C288.384064,279.850311 288.384064,281.595428 288.384064,283.604340 
	C289.795654,283.681458 290.928711,283.795258 292.061951,283.796997 
	C301.009583,283.810852 309.957703,283.751251 318.904633,283.829437 
	C322.217926,283.858398 321.430206,281.556152 321.502258,278.870911 
M1061.922363,125.662888 
	C1068.820557,125.394371 1072.840942,121.099495 1071.379761,115.496124 
	C1070.216064,111.033722 1067.181763,108.849144 1062.657471,108.913483 
	C1058.202637,108.976822 1055.645874,111.638458 1054.671143,115.740128 
	C1053.683716,119.895096 1056.080322,123.253662 1061.922363,125.662888 
M872.956360,364.626434 
	C879.694946,366.369781 884.731384,363.551971 885.002136,357.738708 
	C885.213196,353.206635 883.085754,350.129974 878.631653,348.914398 
	C874.354126,347.747009 871.167664,349.396576 869.029358,353.099426 
	C866.805237,356.950958 867.874451,360.369690 872.956360,364.626434 
M1094.058838,412.556152 
	C1090.846558,408.014435 1087.176636,406.728729 1083.138794,408.730499 
	C1079.520752,410.524139 1077.896240,414.722015 1079.380737,418.441772 
	C1080.779541,421.946503 1084.899536,423.897278 1088.889771,422.943939 
	C1093.016602,421.958038 1094.919067,418.546326 1094.058838,412.556152 
M1007.763428,412.493805 
	C1007.548767,413.785461 1007.063660,415.099670 1007.168945,416.364685 
	C1007.519165,420.571777 1011.031982,423.314392 1015.506897,423.088898 
	C1019.857544,422.869659 1023.050842,419.550537 1022.937439,415.365479 
	C1022.823608,411.167450 1019.470886,407.590210 1015.164795,408.141083 
	C1012.693604,408.457153 1010.445190,410.514496 1007.763428,412.493805 
M448.087067,118.250526 
	C450.593475,120.522903 453.474762,120.691399 455.484253,118.162445 
	C456.529022,116.847641 456.825653,113.798035 455.987000,112.445717 
	C455.137756,111.076347 452.289124,109.939560 450.636993,110.275963 
	C446.655792,111.086594 446.192230,114.133751 448.087067,118.250526 
M541.365051,244.615295 
	C540.935669,241.153824 538.711670,239.304764 535.582642,240.230286 
	C533.868103,240.737427 531.659546,243.224594 531.649719,244.831070 
	C531.639526,246.475815 533.752747,249.049438 535.452881,249.588867 
	C538.526611,250.564056 540.837891,248.798843 541.365051,244.615295 
M198.807312,173.293167 
	C200.546677,170.728729 200.653458,167.901733 197.977142,166.387543 
	C196.350464,165.467224 192.844055,165.373199 191.857239,166.447205 
	C190.611771,167.802673 190.155579,171.185699 191.000107,172.872238 
	C192.491501,175.850555 195.523697,175.636383 198.807312,173.293167 
M313.205627,174.602783 
	C316.278290,175.526627 319.208344,175.071548 319.892578,171.705826 
	C320.249969,169.947876 319.140778,166.857925 317.735413,166.061844 
	C316.286896,165.241333 313.002960,165.761307 311.716461,166.968063 
	C309.368622,169.170380 309.905914,172.040344 313.205627,174.602783 
M271.749237,241.115387 
	C269.333740,245.381470 270.164276,249.164413 273.927124,249.622757 
	C275.588867,249.825150 278.096069,248.973450 279.016907,247.718155 
	C279.940338,246.459335 280.098450,242.966904 279.301849,242.452942 
	C277.414368,241.235062 274.762268,241.202133 271.749237,241.115387 
M618.483398,246.824417 
	C620.535034,247.763153 622.547363,249.255157 624.655029,249.404907 
	C625.693604,249.478683 627.532104,247.231583 627.912720,245.752625 
	C628.688049,242.740326 627.132751,240.428513 623.952026,240.095917 
	C619.741760,239.655624 617.831299,241.890656 618.483398,246.824417 
z"/>
<path fill="#FF7A4A" opacity="1.000000" stroke="none" 
	d="
M898.059082,292.026672 
	C899.162842,269.623932 888.921814,251.741058 877.638672,234.247849 
	C869.550110,221.707596 862.829224,208.619965 860.448120,193.657532 
	C854.689941,157.473801 879.406738,120.812767 912.934631,115.639641 
	C929.618103,113.065498 944.143799,118.052071 956.944824,128.706070 
	C958.587646,130.073364 960.243286,131.425354 961.899963,132.790146 
	C966.708740,129.313492 971.084900,125.723419 975.856079,122.771736 
	C1000.481445,107.537117 1029.578369,115.585510 1046.796997,136.150742 
	C1068.014038,161.491653 1070.144165,193.423859 1053.045410,223.168884 
	C1047.406982,232.977493 1041.418213,242.584244 1035.734497,252.367462 
	C1028.968140,264.014404 1026.022583,276.671509 1026.014038,290.105164 
	C1026.007202,300.958405 1025.580933,311.810364 1020.914795,321.896301 
	C1015.725220,333.113647 1002.082947,335.818298 993.627686,326.841949 
	C989.880188,322.863434 986.710022,317.687683 985.098999,312.490845 
	C982.058655,302.683289 980.518738,292.420868 977.989624,282.440125 
	C976.733459,277.482880 975.193726,272.456909 972.847534,267.948456 
	C969.045532,260.642609 960.717957,259.652832 954.782593,265.442108 
	C948.483337,271.586334 946.937195,279.904541 944.977722,287.985046 
	C942.629883,297.667480 940.887268,307.539978 937.852844,316.999878 
	C935.100952,325.578949 929.219727,331.612152 919.403015,332.093445 
	C911.036499,332.503632 905.372986,329.791290 903.139099,321.818420 
	C900.478149,312.321503 899.675537,302.303925 898.059082,292.026672 
M942.500244,266.090942 
	C944.071411,263.947968 945.442139,261.617004 947.246948,259.693176 
	C957.454651,248.811722 973.025208,250.273514 980.718323,263.016815 
	C983.007446,266.808624 984.792053,271.089447 985.884521,275.381226 
	C988.220581,284.558563 989.542480,294.004181 992.084900,303.115295 
	C993.664001,308.774384 995.937195,314.577026 999.305237,319.315704 
	C1003.661255,325.444427 1010.774353,324.021088 1012.912842,316.790100 
	C1014.685974,310.794891 1016.150391,304.403320 1016.052856,298.214111 
	C1015.680115,274.559631 1022.461914,253.349777 1035.677246,233.880066 
	C1040.056274,227.428528 1043.825195,220.511414 1047.356445,213.545273 
	C1060.574341,187.469574 1056.617432,159.376526 1037.058472,139.236465 
	C1015.958374,117.509430 986.096680,121.025711 969.060852,140.174911 
	C974.323730,143.779312 979.219727,147.942169 984.809204,150.699158 
	C989.121948,152.826385 994.253784,153.633713 999.117432,154.193085 
	C1002.854492,154.622864 1007.729065,153.038345 1007.528870,158.870132 
	C1007.341125,164.336670 1002.230164,163.155457 998.631653,163.610733 
	C997.986511,163.692337 997.309082,163.481293 996.644531,163.453018 
	C985.988281,162.999573 977.153809,158.228378 969.186279,151.624023 
	C962.390259,145.990723 955.957886,139.910858 949.063232,134.405991 
	C933.197327,121.738098 911.853821,121.063843 895.112610,132.414719 
	C874.917358,146.107498 865.056641,171.951141 870.374329,196.563660 
	C873.547913,211.252548 881.583618,223.519745 889.463379,235.843140 
	C900.542969,253.170609 907.784241,271.469299 907.369507,292.539398 
	C907.218323,300.220032 909.210449,307.991302 910.678101,315.634186 
	C911.376404,319.270660 913.227783,322.694824 917.743347,322.949188 
	C922.182556,323.199219 925.758057,321.248047 927.461731,317.258636 
	C929.665527,312.097992 931.446960,306.719391 932.958740,301.308502 
	C936.167542,289.823303 939.084106,278.256500 942.500244,266.090942 
z"/>
<path fill="#404257" opacity="1.000000" stroke="none" 
	d="
M669.856934,450.686218 
	C665.775085,465.510345 656.331299,473.186462 640.895325,473.844849 
	C631.271790,474.255371 621.616394,473.921173 611.585266,473.921173 
	C611.585266,453.324036 611.585266,432.841095 611.585266,412.637604 
	C623.138855,412.637604 634.708557,411.444489 645.928345,412.917419 
	C662.728821,415.123016 671.245850,427.057770 670.447327,444.309814 
	C670.355103,446.301697 670.103516,448.286194 669.856934,450.686218 
M655.391541,441.621063 
	C653.999451,426.565613 644.755859,421.091034 626.106934,424.403992 
	C626.106934,436.766815 626.106934,449.158356 626.106934,461.519043 
	C646.212585,464.234100 654.390686,458.897858 655.391541,441.621063 
z"/>
<path fill="#404156" opacity="1.000000" stroke="none" 
	d="
M960.975830,411.886261 
	C970.341003,415.769531 975.670654,422.430267 977.503845,432.550598 
	C973.130127,433.690430 968.881592,434.797638 964.253967,436.003632 
	C963.823120,434.826385 963.439941,433.782532 963.059021,432.737885 
	C960.862488,426.714081 956.771057,422.993774 950.213379,422.584564 
	C943.528137,422.167450 938.180786,424.569000 934.754333,430.572845 
	C928.414001,441.682251 932.436829,457.417480 942.726868,461.755554 
	C953.601624,466.340118 964.502930,461.248260 968.138733,449.897858 
	C968.387390,449.121796 968.740417,448.379150 969.152954,447.351685 
	C973.617676,447.972229 978.006104,448.582153 982.379883,449.190033 
	C981.027954,463.239624 972.596252,472.273621 958.184509,475.420288 
	C940.159607,479.355865 923.493835,470.569550 918.524719,454.511261 
	C914.028442,439.981018 918.046692,424.164886 928.837585,415.965851 
	C938.499023,408.625000 949.369934,408.287018 960.975830,411.886261 
z"/>
<path fill="#424459" opacity="1.000000" stroke="none" 
	d="
M147.486374,272.001099 
	C147.486526,265.790649 147.486526,260.079803 147.486526,254.368988 
	C147.122650,254.301865 146.758789,254.234726 146.394913,254.167587 
	C145.489471,256.210602 144.560654,258.243622 143.682388,260.298218 
	C138.132584,273.281372 132.554428,286.252655 127.082520,299.268616 
	C125.881180,302.126221 124.972832,304.226257 120.916534,304.235077 
	C116.693718,304.244263 116.103111,301.730682 114.951675,299.018738 
	C109.173882,285.410553 103.366188,271.815063 97.557709,258.219910 
	C96.990341,256.891937 96.345901,255.596878 94.832947,254.370163 
	C94.832947,270.793304 94.832947,287.216461 94.832947,303.820068 
	C92.024139,303.820068 89.894363,303.820068 87.413437,303.820068 
	C87.413437,282.961578 87.413437,262.085876 87.413437,240.756256 
	C89.729630,240.756256 92.059685,240.967667 94.334274,240.702789 
	C97.183640,240.370987 98.366913,241.620743 99.408089,244.146210 
	C105.802498,259.656494 112.379845,275.091400 118.909569,290.545807 
	C119.471695,291.876251 120.130203,293.165924 121.211716,295.471954 
	C123.411797,290.244904 125.232788,285.922211 127.050858,281.598358 
	C131.944000,269.961090 137.118317,258.430328 141.588150,246.632660 
	C143.356339,241.965714 145.599655,239.808792 150.555511,240.720673 
	C151.826431,240.954514 153.176956,240.755768 154.751038,240.755768 
	C154.751038,261.816864 154.751038,282.555450 154.751038,303.654846 
	C152.622391,303.654846 150.401184,303.654846 147.486221,303.654846 
	C147.486221,293.343933 147.486221,282.922363 147.486374,272.001099 
z"/>
<path fill="#434559" opacity="1.000000" stroke="none" 
	d="
M269.547302,174.006683 
	C264.491272,175.063065 262.563324,172.664322 260.902313,168.588333 
	C254.768631,153.536819 248.243225,138.644958 241.043640,123.774719 
	C241.043640,140.376373 241.043640,156.978027 241.043640,173.764374 
	C238.212509,173.764374 235.975372,173.764374 233.510529,173.764374 
	C233.510529,152.762985 233.510529,132.012741 233.510529,110.758698 
	C236.523361,110.758698 239.419525,110.323677 242.077911,110.930458 
	C243.548386,111.266098 245.129074,113.127846 245.793625,114.674057 
	C252.291824,129.793457 258.603668,144.992935 264.979797,160.164886 
	C265.668793,161.804382 266.428955,163.413956 267.431976,165.653229 
	C274.148926,149.615402 280.574249,134.290771 286.985168,118.960136 
	C290.765533,109.920013 290.755280,109.915726 300.953918,111.168022 
	C300.953918,131.907349 300.953918,152.674072 300.953918,173.728455 
	C298.760834,173.728455 296.669220,173.728455 294.052246,173.728455 
	C294.052246,157.171036 294.052246,140.488434 294.052246,123.805847 
	C293.742950,123.725876 293.433655,123.645905 293.124329,123.565941 
	C292.475922,124.784286 291.733612,125.962540 291.193481,127.227127 
	C285.120972,141.444687 279.113342,155.690140 272.980682,169.881592 
	C272.322632,171.404419 270.985443,172.633759 269.547302,174.006683 
z"/>
<path fill="#FF7C4B" opacity="1.000000" stroke="none" 
	d="
M822.055481,243.704132 
	C825.101501,259.082306 830.026550,273.329529 837.523193,286.649994 
	C838.852417,289.011871 840.481079,291.805054 837.029114,293.479980 
	C833.632996,295.127808 832.400330,292.004822 831.140076,289.701294 
	C818.479309,266.559814 811.952332,241.786896 812.925415,215.419617 
	C815.140930,155.389908 843.638733,111.724228 896.280640,83.403717 
	C898.613953,82.148430 901.175354,81.460167 901.971313,84.399239 
	C902.363953,85.849060 900.683533,88.892914 899.156006,89.667793 
	C886.117371,96.282524 874.186218,104.458046 863.856934,114.754189 
	C828.507629,149.989838 814.362305,192.333572 821.851257,241.783813 
	C821.926025,242.277481 821.955505,242.778015 822.055481,243.704132 
z"/>
<path fill="#FF7B4B" opacity="1.000000" stroke="none" 
	d="
M1083.812500,130.282928 
	C1130.085083,194.293274 1118.468262,282.568848 1057.372803,333.274200 
	C1055.407715,334.905121 1053.306519,337.723328 1050.609131,334.888458 
	C1047.687744,331.818115 1050.581909,329.792267 1052.734863,327.998474 
	C1070.980347,312.796722 1085.271851,294.532043 1094.041992,272.431824 
	C1112.534058,225.832947 1108.046021,181.221390 1081.330200,138.824875 
	C1080.708740,137.838791 1079.809082,136.950424 1079.474121,135.880356 
	C1079.017700,134.422440 1078.270996,132.214523 1078.936401,131.452271 
	C1079.833862,130.424210 1081.956421,130.465530 1083.812500,130.282928 
z"/>
<path fill="#414357" opacity="1.000000" stroke="none" 
	d="
M865.609009,459.794800 
	C865.898193,466.579102 866.042175,466.697754 871.570374,464.813568 
	C872.481750,466.859406 873.405151,468.932037 874.281616,470.899475 
	C865.881775,478.056335 856.121399,476.403107 852.263123,467.076904 
	C847.346985,473.691803 840.787476,476.035248 832.912415,475.041168 
	C826.066406,474.177002 821.282776,470.005798 820.418396,464.049988 
	C819.623535,458.573395 822.574036,453.177551 828.984009,450.953003 
	C834.721252,448.961945 840.959412,448.458191 846.884399,446.938812 
	C848.812317,446.444489 850.449768,444.817108 852.220032,443.707947 
	C850.721191,441.776550 849.616455,438.954498 847.648438,438.083771 
	C842.133972,435.644073 837.514587,438.372894 834.333130,445.408234 
	C830.391479,444.829346 826.335754,444.233704 821.880859,443.579407 
	C822.491760,436.793121 826.259338,432.655487 831.783020,430.112976 
	C838.877686,426.847382 846.353210,426.693817 853.693542,429.180176 
	C860.585205,431.514587 864.828125,436.378754 865.288086,443.859741 
	C865.604187,449.000488 865.516235,454.166107 865.609009,459.794800 
M852.011841,457.110474 
	C851.393616,456.107880 850.666565,454.188110 850.174194,454.246490 
	C845.912964,454.751953 841.580688,455.257080 837.520020,456.549316 
	C835.962830,457.044861 834.033936,459.645508 834.133606,461.164948 
	C834.235779,462.723724 836.341553,464.803680 838.040283,465.486267 
	C843.789490,467.796326 849.346130,464.581360 852.011841,457.110474 
z"/>
<path fill="#404156" opacity="1.000000" stroke="none" 
	d="
M706.287109,428.565796 
	C718.394714,432.543518 723.901184,442.173065 721.497437,455.305237 
	C710.855225,455.305237 700.110596,455.305237 689.087402,455.305237 
	C689.548828,460.513916 692.341187,463.365448 696.433350,464.841583 
	C703.753357,467.481934 710.101929,465.337189 715.838379,459.970093 
	C718.202881,461.786438 720.553894,463.592407 723.179260,465.609100 
	C718.871765,472.396240 712.272888,474.870514 705.054993,475.528687 
	C694.746765,476.468689 685.309998,473.997223 679.172424,464.944733 
	C673.708374,456.885651 673.507202,448.066345 677.959290,439.383148 
	C682.794739,429.952545 692.619690,426.204071 706.287109,428.565796 
M704.508850,438.777618 
	C696.505249,434.972687 689.589905,438.865570 689.329529,447.420715 
	C695.686829,447.420715 702.036926,447.420715 709.637268,447.420715 
	C707.858643,444.190521 706.492554,441.709503 704.508850,438.777618 
z"/>
<path fill="#44465A" opacity="1.000000" stroke="none" 
	d="
M142.398529,151.327667 
	C139.061401,164.751617 130.515549,172.370255 115.975685,173.619446 
	C106.587677,174.426010 97.074089,173.771042 87.338837,173.771042 
	C87.338837,152.904205 87.338837,132.157745 87.338837,110.153496 
	C99.041039,110.834282 110.891174,110.545303 122.372246,112.464348 
	C134.057541,114.417511 141.638351,124.084267 142.823288,136.013947 
	C143.311279,140.927017 142.653000,145.953949 142.398529,151.327667 
M132.851685,128.977783 
	C129.746262,123.146782 124.813164,119.375221 118.439453,118.519096 
	C110.780602,117.490341 102.987785,117.459023 95.096634,116.986481 
	C95.096634,134.310883 95.096634,150.669708 95.096634,166.994629 
	C101.999138,166.994629 108.507927,167.335800 114.967140,166.915329 
	C124.864395,166.271057 132.248764,160.199478 134.635864,151.175583 
	C136.564697,143.884140 136.342941,136.664886 132.851685,128.977783 
z"/>
<path fill="#44465A" opacity="1.000000" stroke="none" 
	d="
M749.903564,429.662903 
	C754.313843,429.200562 758.501953,428.174103 762.416382,428.816071 
	C768.553284,429.822418 771.960571,434.409363 772.147217,440.480499 
	C772.483765,451.430481 772.242371,462.398193 772.242371,473.688660 
	C768.015564,473.688660 763.805115,473.688660 759.058350,473.688660 
	C759.058350,465.356964 759.086914,457.083893 759.049133,448.811096 
	C759.019653,442.365723 756.513855,439.152771 751.593750,439.097229 
	C746.092834,439.035156 742.114014,442.966522 741.994751,449.031494 
	C741.834961,457.157318 741.955139,465.288635 741.955139,473.716492 
	C737.371704,473.716492 733.148926,473.716492 728.674927,473.716492 
	C728.674927,458.999023 728.674927,444.415253 728.674927,429.505951 
	C732.274597,429.505951 735.692627,429.505951 739.543823,429.505951 
	C740.210510,431.517975 740.957275,433.771698 741.694214,435.995636 
	C744.448608,433.842102 747.003662,431.844452 749.903564,429.662903 
z"/>
<path fill="#3E4055" opacity="1.000000" stroke="none" 
	d="
M1030.336792,429.273865 
	C1031.292358,429.215729 1031.795532,429.249756 1032.289795,429.198608 
	C1037.771484,428.631287 1042.650635,428.878601 1041.515137,437.972443 
	C1046.461548,431.139771 1051.647461,427.770721 1058.720093,428.003387 
	C1066.854736,428.270935 1072.505737,433.082611 1072.806519,441.159546 
	C1073.207153,451.921936 1072.905396,462.710480 1072.905396,473.744171 
	C1068.577637,473.744171 1064.498291,473.744171 1059.716675,473.744171 
	C1059.716675,468.841431 1059.720947,463.934174 1059.715332,459.026917 
	C1059.710815,455.200928 1059.825684,451.368805 1059.647827,447.550568 
	C1059.444580,443.186554 1057.817749,439.727661 1052.874512,439.129883 
	C1048.251343,438.570740 1043.725586,441.524902 1042.943237,446.275421 
	C1042.247314,450.500488 1042.373779,454.872925 1042.287231,459.183319 
	C1042.191284,463.964294 1042.265259,468.748688 1042.265259,473.762146 
	C1037.760254,473.762146 1033.672974,473.762146 1028.996948,473.762146 
	C1028.996948,461.981171 1028.937622,450.233643 1029.037354,438.487457 
	C1029.063232,435.431641 1029.585815,432.380035 1030.336792,429.273865 
z"/>
<path fill="#414257" opacity="1.000000" stroke="none" 
	d="
M1144.447876,464.317383 
	C1136.623047,475.824951 1121.324341,479.159332 1109.868652,472.121124 
	C1099.375244,465.674194 1096.004639,449.887115 1102.668579,438.397156 
	C1110.111572,425.563843 1130.574219,423.708008 1140.008545,435.169434 
	C1142.008057,437.598724 1143.166626,440.720428 1144.997070,444.038605 
	C1140.259277,445.292603 1136.611328,446.258118 1132.747314,447.280823 
	C1132.126099,445.929749 1131.657593,444.730865 1131.045898,443.610107 
	C1127.401245,436.931213 1118.704224,436.603851 1114.845581,443.178131 
	C1111.664307,448.598236 1111.727173,454.343414 1114.860352,459.805511 
	C1117.046631,463.617157 1120.679565,465.347504 1124.998047,464.794250 
	C1130.464355,464.093903 1133.258301,460.336121 1134.633057,454.738525 
	C1138.595703,455.244568 1142.483887,455.741089 1147.108765,456.331726 
	C1146.211914,459.131989 1145.431396,461.568970 1144.447876,464.317383 
z"/>
<path fill="#414257" opacity="1.000000" stroke="none" 
	d="
M790.685913,472.416534 
	C785.646545,468.605743 784.595520,463.493469 784.563477,457.988281 
	C784.528809,452.033691 784.555725,446.078766 784.555725,439.755829 
	C781.657715,439.555023 779.232788,439.386993 776.459534,439.194824 
	C776.459534,436.054840 776.459534,432.993744 776.459534,429.429504 
	C778.906921,429.290955 781.473877,429.145630 784.423767,428.978668 
	C784.423767,424.949768 784.423767,421.185303 784.423767,417.100616 
	C788.917542,416.090607 793.098083,415.151001 797.789307,414.096649 
	C797.789307,419.089447 797.789307,423.812012 797.789307,428.999237 
	C803.810669,428.999237 809.385071,428.999237 815.357178,428.999237 
	C815.357178,432.522461 815.357178,435.588287 815.357178,439.155273 
	C809.923767,439.155273 804.334656,439.155273 798.166992,439.155273 
	C798.166992,446.189758 797.648376,452.808228 798.327820,459.301361 
	C798.890747,464.681030 805.253784,466.636017 810.115051,463.422455 
	C811.458435,462.534424 812.545776,461.259064 813.754456,460.157959 
	C819.431274,468.136292 819.500122,469.067902 810.028809,473.952148 
	C803.745239,477.192535 797.099609,476.417847 790.685913,472.416534 
z"/>
<path fill="#424459" opacity="1.000000" stroke="none" 
	d="
M337.199097,116.178223 
	C353.785431,102.985634 376.240570,107.180595 384.009796,124.659920 
	C384.806915,126.453316 385.324249,128.371063 386.085663,130.559540 
	C383.712677,131.169647 381.670685,131.694656 379.810059,132.173035 
	C379.300659,131.757904 378.924713,131.606827 378.828217,131.350525 
	C374.333252,119.411728 367.199371,114.210190 356.737427,115.273697 
	C344.833344,116.483788 337.204285,123.766937 335.132721,135.898819 
	C332.965302,148.591904 337.457886,160.517044 346.410645,165.835114 
	C362.033417,175.115280 379.249054,167.749710 384.676697,149.018967 
	C386.799622,149.504669 388.958069,149.998489 391.070221,150.481735 
	C390.420166,163.874039 378.750671,174.995026 364.656128,175.987442 
	C348.465790,177.127426 336.659180,171.249832 330.710785,159.219009 
	C325.112732,147.896820 325.134033,127.714020 337.199097,116.178223 
z"/>
<path fill="#44465A" opacity="1.000000" stroke="none" 
	d="
M676.102417,262.390808 
	C675.987732,256.103394 680.261047,259.834167 683.020752,258.234833 
	C683.020752,267.107147 683.019714,275.199921 683.021729,283.292694 
	C683.022095,284.791656 682.987061,286.292633 683.049927,287.789246 
	C683.399963,296.119598 687.999207,301.110077 695.391479,301.215668 
	C703.343262,301.329315 709.756042,295.875458 710.056030,287.961426 
	C710.415161,278.487823 710.140808,268.990173 710.140808,259.099731 
	C712.516663,259.099731 714.573425,259.099731 716.913086,259.099731 
	C716.913086,275.309814 717.382751,291.593079 716.703430,307.828278 
	C716.391113,315.290985 711.211853,320.452881 704.007507,323.051270 
	C691.511902,327.557953 676.794434,323.022736 671.370728,312.707703 
	C673.033508,311.528656 674.744690,310.315216 676.441162,309.112213 
	C684.767883,318.008331 693.626343,320.629181 702.161072,316.801697 
	C708.114258,314.131958 710.694885,308.990204 710.074951,302.246124 
	C705.153992,303.993713 700.100220,307.030701 694.863098,307.389221 
	C684.020447,308.131561 676.548706,299.841278 676.178833,287.825104 
	C675.922668,279.504700 676.112000,271.170593 676.102417,262.390808 
z"/>
<path fill="#45475B" opacity="1.000000" stroke="none" 
	d="
M598.726318,137.143112 
	C598.726501,134.196091 598.726501,131.725189 598.726501,128.974472 
	C600.987122,128.974472 602.909424,128.974472 605.604614,128.974472 
	C605.604614,134.851028 605.595825,140.769241 605.607788,146.687439 
	C605.615540,150.518997 605.512573,154.357697 605.707825,158.180511 
	C606.100403,165.864273 609.941589,170.441467 616.319458,171.108566 
	C623.974915,171.909332 630.586304,167.799347 632.100830,160.456879 
	C633.028259,155.960510 632.786560,151.204529 632.888611,146.561157 
	C633.009399,141.065460 632.929688,135.565430 632.958923,130.067413 
	C632.960571,129.763611 633.163452,129.460907 633.335693,128.982880 
	C635.364929,128.982880 637.449219,128.982880 639.732178,128.982880 
	C639.732178,144.578079 640.157410,159.897598 639.589355,175.180191 
	C639.180603,186.175598 632.248901,192.719788 621.319214,194.253098 
	C608.985840,195.983307 599.039795,191.965561 593.759155,182.730118 
	C595.413208,181.574081 597.117920,180.382660 599.140747,178.968872 
	C605.574707,188.285110 614.436035,190.430130 624.487000,186.741867 
	C631.629089,184.120987 633.226624,177.766281 632.899109,170.166718 
	C631.574768,171.308502 630.576477,172.199875 629.546143,173.052444 
	C623.599182,177.973419 616.918335,178.932297 609.894043,176.069260 
	C602.879761,173.210312 599.376160,167.465881 598.990540,160.103119 
	C598.598816,152.624374 598.790161,145.115128 598.726318,137.143112 
z"/>
<path fill="#434559" opacity="1.000000" stroke="none" 
	d="
M401.590393,305.660126 
	C393.664978,306.368530 387.562073,303.600830 381.855347,297.056122 
	C381.855347,306.222534 381.855347,314.362488 381.855347,322.705383 
	C379.205200,322.705383 377.263580,322.705383 375.046814,322.705383 
	C375.046814,301.557953 375.046814,280.495789 375.046814,259.065979 
	C376.838196,259.065979 378.699615,259.065979 380.685333,259.065979 
	C380.907379,261.175873 381.108398,263.085968 381.400757,265.864014 
	C390.586670,255.734055 400.747314,254.123611 411.727081,260.682037 
	C419.821655,265.517059 423.750305,276.408722 421.780243,286.574890 
	C419.752106,297.040649 413.103424,303.442200 401.590393,305.660126 
M384.258942,271.029694 
	C383.700562,272.235474 383.038727,273.404907 382.599945,274.652740 
	C378.725342,285.671326 384.926910,297.526550 395.359741,299.107941 
	C404.094666,300.431976 411.347992,296.096802 414.127014,287.891022 
	C417.121735,279.048340 413.793182,269.314148 406.385468,265.251373 
	C398.939575,261.167664 390.608887,263.159271 384.258942,271.029694 
z"/>
<path fill="#44465A" opacity="1.000000" stroke="none" 
	d="
M550.252380,300.678894 
	C544.413330,292.282715 546.212219,284.028015 555.366394,280.587799 
	C561.939209,278.117706 569.246277,277.647980 576.161377,276.013489 
	C578.198181,275.532074 581.718628,273.902618 581.625183,273.176575 
	C581.299011,270.640106 580.317200,267.512207 578.456543,265.968689 
	C571.323608,260.051453 558.685425,263.269043 554.575256,271.646210 
	C554.288147,272.231445 554.028992,272.830383 553.606079,273.751251 
	C551.772644,272.998505 550.008118,272.274109 548.306702,271.575592 
	C548.941772,264.088043 556.058533,258.103363 565.537598,257.098785 
	C577.523254,255.828537 590.261902,260.628204 589.021606,277.844788 
	C588.628174,283.305359 588.922729,288.818634 588.972046,294.307159 
	C589.021729,299.839478 590.155334,300.410309 595.331238,297.318420 
	C596.320496,298.495026 597.343018,299.711243 599.477478,302.249939 
	C595.220276,303.605621 591.820374,305.569458 588.433167,305.547882 
	C584.022400,305.519806 582.305786,301.670227 581.829590,297.420502 
	C572.013550,307.381012 560.409363,308.619049 550.252380,300.678894 
M566.236877,299.537537 
	C577.681580,297.972260 583.073853,291.715759 581.380737,281.599365 
	C578.460510,281.924530 575.478577,282.068817 572.574585,282.622101 
	C567.706665,283.549591 562.676514,284.216248 558.146606,286.056122 
	C556.153015,286.865814 554.120850,290.292786 554.136108,292.517578 
	C554.149414,294.459290 556.691101,296.891113 558.710205,298.161346 
	C560.534424,299.308899 563.163391,299.177277 566.236877,299.537537 
z"/>
<path fill="#FF7B4B" opacity="1.000000" stroke="none" 
	d="
M1085.039673,69.933861 
	C1087.090698,66.292847 1088.798218,62.863899 1090.835693,59.643650 
	C1091.727539,58.234119 1093.462402,56.166401 1094.513550,56.330162 
	C1096.066650,56.572128 1097.695923,58.311596 1098.682129,59.814213 
	C1101.131592,63.545982 1102.543335,68.227333 1105.645020,71.197891 
	C1109.990601,75.359673 1115.545166,78.241417 1120.466919,81.829338 
	C1122.086060,83.009659 1124.506348,84.724701 1124.455566,86.118622 
	C1124.401001,87.621094 1122.137329,89.679337 1120.390381,90.379349 
	C1110.047607,94.523567 1103.122437,101.821938 1098.812378,111.985893 
	C1098.102905,113.659149 1096.059814,115.546722 1094.415405,115.776276 
	C1093.272949,115.935745 1091.160034,113.668739 1090.506226,112.067154 
	C1086.248901,101.639061 1079.075317,94.347458 1068.593018,90.135338 
	C1067.003174,89.496521 1064.973267,87.548180 1064.930542,86.151062 
	C1064.889160,84.793175 1066.950195,83.110146 1068.419312,82.013657 
	C1073.815063,77.986160 1079.348633,74.143150 1085.039673,69.933861 
M1080.096069,83.661362 
	C1078.977783,84.452194 1077.859375,85.243019 1077.551147,85.461037 
	C1083.616089,91.617844 1089.377319,97.466370 1094.610718,102.779007 
	C1099.925049,97.430992 1105.874634,91.443665 1111.140991,86.143860 
	C1105.603516,80.538979 1099.777100,74.641670 1094.720581,69.523514 
	C1090.317017,73.835678 1085.509888,78.542984 1080.096069,83.661362 
z"/>
<path fill="#45475B" opacity="1.000000" stroke="none" 
	d="
M428.722961,272.848877 
	C433.295074,260.903717 443.834015,254.867035 455.306549,257.308380 
	C466.552948,259.701599 473.538879,270.110901 472.492188,283.556854 
	C460.151276,283.556854 447.743896,283.556854 435.354767,283.556854 
	C435.264740,290.417053 439.213715,295.811920 445.694794,298.267761 
	C453.841980,301.354950 461.500824,299.020691 468.524872,291.130981 
	C470.211853,291.832062 471.999268,292.574860 473.791290,293.319580 
	C469.236755,303.765564 456.259674,308.458466 443.855896,304.334534 
	C431.207855,300.129333 425.138885,287.750732 428.722961,272.848877 
M445.723877,263.936737 
	C439.319122,266.134583 435.912354,270.636078 434.866180,277.279480 
	C445.257202,277.279480 455.104095,277.279480 464.966644,277.279480 
	C464.225403,266.929993 456.945038,261.751770 445.723877,263.936737 
z"/>
<path fill="#44465A" opacity="1.000000" stroke="none" 
	d="
M513.960083,174.010834 
	C512.200317,173.955399 510.906342,173.893478 509.375763,173.820236 
	C509.375763,151.878418 509.375763,130.171158 509.375763,108.229057 
	C511.536957,108.229057 513.473511,108.229057 515.972107,108.229057 
	C515.972107,116.846779 515.972107,125.530495 515.972107,135.307983 
	C521.520508,129.063232 527.482666,126.513168 534.742310,126.940125 
	C543.225708,127.439026 549.536987,132.711716 549.927246,141.147461 
	C550.425781,151.922028 550.048157,162.737137 550.048157,173.776505 
	C547.935852,173.776505 545.863770,173.776505 543.332947,173.776505 
	C543.332947,164.938400 543.367371,156.316315 543.323853,147.694611 
	C543.274597,137.933777 539.750427,133.266785 532.302002,132.958908 
	C523.260803,132.585190 516.602966,138.407776 516.177795,147.608917 
	C515.832581,155.081757 516.150635,162.583420 515.980713,170.067886 
	C515.950684,171.391113 514.968384,172.692749 513.960083,174.010834 
z"/>
<path fill="#414357" opacity="1.000000" stroke="none" 
	d="
M397.986542,151.999908 
	C397.986542,137.198578 397.986542,122.897186 397.986542,108.299759 
	C400.318909,108.299759 402.364136,108.299759 404.807007,108.299759 
	C404.807007,116.847778 404.807007,125.267159 404.807007,134.835495 
	C410.380066,129.404007 416.013428,126.546402 423.045044,126.918701 
	C431.824524,127.383537 438.243561,132.451782 438.742401,141.224152 
	C439.353729,151.974670 438.888092,162.786423 438.888092,173.789764 
	C436.707733,173.789764 434.764099,173.789764 432.099701,173.789764 
	C432.099701,166.421265 432.099792,158.997406 432.099609,151.573532 
	C432.099548,150.074326 432.109406,148.575012 432.095978,147.075912 
	C432.013672,137.883286 428.302643,133.191574 420.928253,132.947769 
	C412.227478,132.660080 405.449463,138.294983 405.071442,146.749039 
	C404.699677,155.062180 404.933746,163.402191 404.881805,171.730286 
	C404.877869,172.359787 404.712372,172.988266 404.595825,173.798996 
	C402.471130,173.798996 400.530212,173.798996 397.986542,173.798996 
	C397.986542,166.711227 397.986542,159.605560 397.986542,151.999908 
z"/>
<path fill="#44465A" opacity="1.000000" stroke="none" 
	d="
M361.552277,262.484924 
	C362.992340,264.675354 364.180725,266.603485 365.665527,269.012573 
	C363.209930,269.833344 361.408508,270.435455 359.657928,271.020569 
	C354.088867,263.372681 348.157043,260.821991 342.104034,264.186493 
	C339.876404,265.424713 337.690186,268.378113 337.373016,270.796753 
	C337.183105,272.245087 340.370056,274.960114 342.527618,275.721161 
	C347.040344,277.312927 351.915222,277.841400 356.571136,279.072174 
	C364.592712,281.192749 368.275970,284.927185 368.384064,290.664368 
	C368.505554,297.113464 363.783081,302.836212 356.429199,304.812469 
	C349.035370,306.799500 341.886078,306.072296 335.275940,302.035950 
	C331.088318,299.478851 328.457520,295.805634 327.940704,290.329102 
	C330.022980,289.854340 332.046387,289.393036 333.998901,288.947845 
	C338.273773,298.583435 347.896027,302.466949 356.650574,297.883850 
	C358.828125,296.743896 361.388000,293.802612 361.360748,291.720886 
	C361.335358,289.782135 358.433990,286.943176 356.211487,286.153870 
	C350.448944,284.107361 344.306915,283.160278 338.424194,281.411682 
	C333.765869,280.027100 330.612732,276.835815 330.253723,271.763947 
	C329.896545,266.717285 331.984528,262.592773 336.307709,259.945190 
	C343.300629,255.662628 350.520203,255.926239 357.688110,259.580536 
	C359.000214,260.249481 360.101837,261.331360 361.552277,262.484924 
z"/>
<path fill="#44465A" opacity="1.000000" stroke="none" 
	d="
M489.487061,128.238464 
	C494.607697,130.483170 498.270996,133.557114 499.611725,139.265366 
	C497.605072,139.902328 495.769196,140.485092 493.980835,141.052765 
	C489.181580,133.549713 482.755371,130.813477 476.554810,134.186859 
	C474.392883,135.363022 471.809479,138.248077 471.861969,140.289902 
	C471.911255,142.207382 474.865997,144.952377 477.102325,145.736725 
	C483.025482,147.814240 489.452118,148.498001 495.308502,150.713959 
	C503.379211,153.767776 505.330719,161.755020 500.323334,168.597198 
	C500.028961,168.999420 499.742065,169.411621 499.408173,169.779724 
	C491.288422,178.732437 472.030792,177.590454 465.108521,167.622894 
	C463.740906,165.653625 463.076874,163.195740 461.930450,160.606537 
	C464.390839,159.944962 466.271729,159.439209 468.105896,158.946014 
	C473.857239,168.334427 478.906158,170.940720 487.940399,169.015274 
	C489.836456,168.611160 491.806183,167.823563 493.361450,166.690414 
	C497.489899,163.682510 497.129944,158.967148 492.519073,156.829956 
	C489.695007,155.520966 486.542236,154.885559 483.498840,154.094925 
	C480.283722,153.259674 476.936615,152.856827 473.802643,151.802719 
	C468.999847,150.187256 465.143768,147.490433 464.851440,141.712418 
	C464.565155,136.054321 467.249786,131.484299 472.585632,128.893936 
	C477.969238,126.280350 483.511932,126.404121 489.487061,128.238464 
z"/>
<path fill="#FF7C4C" opacity="1.000000" stroke="none" 
	d="
M1020.307983,352.439087 
	C1019.368896,354.181885 1018.582947,356.345825 1017.175964,356.882874 
	C980.530273,370.871216 943.829224,371.134033 907.152344,356.911072 
	C904.763123,355.984558 902.040649,354.939545 903.198242,351.695557 
	C904.479858,348.103943 907.358643,349.243042 909.885437,350.265442 
	C930.469055,358.593872 951.986389,362.082001 973.920227,359.766907 
	C987.172302,358.368164 1000.134277,354.171509 1013.203552,351.132843 
	C1015.734924,350.544312 1018.261108,348.740112 1020.307983,352.439087 
z"/>
<path fill="#434559" opacity="1.000000" stroke="none" 
	d="
M172.523438,303.708252 
	C167.754120,300.798431 165.085358,296.735382 164.951462,291.652771 
	C164.667633,280.877197 164.864914,270.088928 164.864914,259.002014 
	C166.917450,259.002014 168.973984,259.002014 171.491379,259.002014 
	C171.491379,267.661560 171.463333,276.110596 171.498657,284.559387 
	C171.540527,294.568512 175.128586,299.457947 182.643036,299.857056 
	C191.308334,300.317352 198.266296,294.213226 198.708817,285.000092 
	C199.121887,276.399811 198.797119,267.764130 198.797119,258.923828 
	C201.225159,258.923828 203.162613,258.923828 205.428955,258.923828 
	C205.428955,273.944000 205.428955,288.803741 205.428955,303.840515 
	C203.443085,303.840515 201.658997,303.840515 199.583969,303.840515 
	C199.293472,301.992706 199.019562,300.250488 198.659943,297.963043 
	C191.226212,305.644012 182.714081,308.006958 172.523438,303.708252 
z"/>
<path fill="#3D3F54" opacity="1.000000" stroke="none" 
	d="
M989.292358,409.197968 
	C993.247498,409.152344 996.731079,409.152344 1000.632751,409.152344 
	C1000.632751,430.628265 1000.632751,451.964996 1000.632751,473.652008 
	C996.686523,473.652008 992.491272,473.652008 987.834961,473.652008 
	C987.834961,464.295380 987.834961,455.034180 987.834961,445.772980 
	C987.834961,435.133423 987.795471,424.493530 987.878845,413.854614 
	C987.890869,412.315247 988.492249,410.780487 989.292358,409.197968 
z"/>
<path fill="#3D3F54" opacity="1.000000" stroke="none" 
	d="
M891.261230,458.996979 
	C891.261292,464.132233 891.261292,468.767975 891.261292,473.700989 
	C886.905701,473.700989 882.814209,473.700989 878.359253,473.700989 
	C878.359253,452.511536 878.359253,431.164001 878.359253,409.476440 
	C882.309631,409.476440 886.371399,409.476440 891.261230,409.476440 
	C891.261230,425.764038 891.261230,442.130737 891.261230,458.996979 
z"/>
<path fill="#45475B" opacity="1.000000" stroke="none" 
	d="
M648.627258,286.895386 
	C648.627136,287.545807 648.625549,287.712341 648.627197,287.878876 
	C648.704773,295.696869 650.393616,298.768402 655.123962,299.695251 
	C659.880615,300.627289 663.627808,297.851501 666.569702,290.971863 
	C668.185730,291.588135 669.819153,292.211060 671.395813,292.812317 
	C670.414429,300.742950 664.008240,306.001556 655.782471,305.860840 
	C647.766663,305.723694 642.114380,300.562164 641.886536,292.562866 
	C641.626648,283.438690 641.826355,274.301453 641.826355,264.542175 
	C638.332153,264.542175 635.273010,264.542175 632.010620,264.542175 
	C632.010620,262.322662 632.010620,260.734131 632.010620,258.693604 
	C635.087585,258.693604 638.019043,258.693604 641.456909,258.693604 
	C641.456909,254.025055 641.456909,249.785080 641.456909,245.300842 
	C643.916260,244.727783 645.943542,244.255402 648.588257,243.639175 
	C648.588257,248.830017 648.588257,253.415237 648.588257,258.483826 
	C655.483887,258.483826 661.893250,258.483826 668.678711,258.483826 
	C668.769165,260.537994 668.838440,262.112091 668.928650,264.161194 
	C662.209717,264.161194 655.792297,264.161194 648.627380,264.161194 
	C648.627380,271.868561 648.627380,279.140015 648.627258,286.895386 
z"/>
<path fill="#46485C" opacity="1.000000" stroke="none" 
	d="
M571.932983,174.294052 
	C565.740234,171.105560 564.375000,165.818909 564.370972,159.849625 
	C564.365417,151.557297 564.369568,143.264969 564.369568,134.495667 
	C560.993103,134.495667 558.082825,134.495667 554.734741,134.495667 
	C554.610291,132.484726 554.513916,130.927948 554.386597,128.870880 
	C557.668945,128.870880 560.586060,128.870880 564.069946,128.870880 
	C564.069946,124.189178 564.069946,119.963120 564.069946,115.402863 
	C566.522400,114.787941 568.523499,114.286201 571.120544,113.635025 
	C571.120544,118.692574 571.120544,123.261200 571.120544,128.501724 
	C578.141113,128.501724 584.691956,128.501724 591.448975,128.501724 
	C591.448975,130.632584 591.448975,132.079956 591.448975,134.254211 
	C584.879395,134.254211 578.356140,134.254211 571.406982,134.254211 
	C571.406982,144.065567 571.254578,153.170197 571.483032,162.265244 
	C571.572754,165.838348 573.581604,169.265564 577.294312,169.297073 
	C580.399292,169.323425 583.707214,167.671448 586.553833,166.092834 
	C587.885071,165.354568 588.339355,163.034958 589.401611,161.035767 
	C590.872009,161.571198 592.493713,162.161743 593.988220,162.705963 
	C594.692139,172.154083 580.900940,179.038849 571.932983,174.294052 
z"/>
<path fill="#44465A" opacity="1.000000" stroke="none" 
	d="
M518.410400,300.464111 
	C506.994293,308.105469 493.308807,307.208008 485.291382,298.548889 
	C477.218689,289.830109 476.792755,274.333130 484.366364,264.892578 
	C494.518890,252.237396 515.593079,255.034943 521.521362,269.839386 
	C521.813049,270.567902 521.853699,271.396973 522.062683,272.434906 
	C519.951294,272.937439 518.057434,273.388214 516.230042,273.823151 
	C510.477539,264.385834 504.657898,261.500122 496.756836,264.033478 
	C489.513245,266.355988 485.358337,273.814240 485.982391,283.374054 
	C486.513275,291.506683 491.936890,297.840729 499.480804,299.138275 
	C508.892944,300.757202 514.944397,297.077484 519.672058,286.660156 
	C521.520447,287.013672 523.438538,287.380524 525.582703,287.790649 
	C525.062073,293.180359 522.331055,296.953033 518.410400,300.464111 
z"/>
<path fill="#414357" opacity="1.000000" stroke="none" 
	d="
M226.819427,258.871857 
	C230.028397,258.751740 232.819534,258.751740 235.872314,258.751740 
	C235.872314,254.113495 235.872314,249.977600 235.872314,245.322510 
	C238.123337,244.789581 240.241608,244.288086 242.878738,243.663742 
	C242.878738,248.888504 242.878738,253.501999 242.878738,258.538513 
	C249.675003,258.538513 256.089508,258.538513 262.770416,258.538513 
	C262.770416,260.551636 262.770416,262.138214 262.770416,264.146057 
	C256.341766,264.146057 249.923798,264.146057 243.063614,264.146057 
	C243.063614,274.149902 242.715378,283.767975 243.325775,293.324829 
	C243.466003,295.520050 246.624344,298.754486 248.892105,299.255737 
	C251.463196,299.823944 254.862564,298.312469 257.385712,296.827972 
	C258.997528,295.879669 259.673767,293.341156 261.038605,291.067200 
	C262.410706,291.586639 264.037354,292.202484 265.614868,292.799744 
	C264.807037,300.591644 258.316620,305.956146 250.066742,305.848053 
	C242.116028,305.743866 236.272034,300.449860 236.067642,292.602783 
	C235.825577,283.309174 236.010742,274.004425 236.010742,264.399231 
	C232.630844,264.399231 229.669281,264.399231 226.050781,264.399231 
	C226.182129,262.374725 226.291870,260.683350 226.819427,258.871857 
z"/>
<path fill="#FF7B4B" opacity="1.000000" stroke="none" 
	d="
M838.890381,363.771515 
	C832.278809,366.276703 828.044983,370.632172 825.228455,376.696808 
	C824.436157,378.402893 822.519104,380.299713 820.834778,380.620117 
	C819.766052,380.823425 817.655396,378.520111 816.909729,376.922028 
	C814.100098,370.900452 809.943054,366.538269 803.748718,363.919830 
	C802.201599,363.265869 800.520935,361.337677 800.262329,359.770569 
	C800.082153,358.678589 801.965515,356.639923 803.372009,355.995911 
	C809.897705,353.007874 814.628113,348.506012 817.338074,341.771606 
	C817.859985,340.474640 819.694397,338.757019 820.763611,338.861908 
	C822.197021,339.002472 824.146851,340.453918 824.705811,341.820709 
	C827.455505,348.543884 832.222717,352.940308 838.713379,355.992310 
	C843.330261,358.163177 843.286682,360.091400 838.890381,363.771515 
M822.294250,367.790283 
	C824.871033,365.058105 827.447754,362.325897 829.268799,360.395050 
	C826.344055,357.344849 823.424011,354.299561 821.078064,351.852997 
	C818.464294,354.432983 815.477112,357.381500 813.594360,359.239960 
	C815.064270,361.279297 816.812073,363.914490 818.800415,366.353516 
	C819.541077,367.262115 820.844421,367.711945 822.294250,367.790283 
z"/>
<path fill="#47495D" opacity="1.000000" stroke="none" 
	d="
M1021.737061,462.969604 
	C1021.737000,466.765656 1021.737000,470.066864 1021.737000,473.692932 
	C1017.177246,473.692932 1012.967529,473.692932 1008.483032,473.692932 
	C1008.483032,459.034790 1008.483032,444.474335 1008.483032,429.540802 
	C1012.767090,429.540802 1016.962585,429.540802 1021.737122,429.540802 
	C1021.737122,440.614899 1021.737122,451.544830 1021.737061,462.969604 
z"/>
<path fill="#3F4155" opacity="1.000000" stroke="none" 
	d="
M1093.094116,430.329102 
	C1093.236206,444.932861 1093.236206,459.082855 1093.236206,473.619080 
	C1088.943970,473.619080 1084.748901,473.619080 1080.294556,473.619080 
	C1080.294556,459.023804 1080.294556,444.446594 1080.294556,429.007385 
	C1084.579468,429.301178 1088.765747,429.588257 1093.094116,430.329102 
z"/>
<path fill="#414357" opacity="1.000000" stroke="none" 
	d="
M180.778351,131.245972 
	C182.327087,134.467880 183.640442,137.406158 185.113785,140.702316 
	C182.534271,141.601395 180.862808,142.183990 178.929779,142.857742 
	C178.572174,141.841583 178.256668,141.114044 178.059296,140.355743 
	C177.043381,136.452515 174.757812,133.711304 170.636520,133.273712 
	C166.537781,132.838531 162.729889,134.267990 160.882095,137.984100 
	C159.306870,141.152084 158.228287,144.855042 158.058014,148.375885 
	C157.656998,156.668106 157.929428,164.992874 157.929428,173.656830 
	C155.604233,173.656830 153.563278,173.656830 151.243652,173.656830 
	C151.243652,158.925140 151.243652,144.149826 151.243652,129.041840 
	C152.885300,129.041840 154.631058,129.041840 156.675766,129.041840 
	C156.894302,130.574478 157.121857,132.170425 157.458359,134.530319 
	C164.337936,126.695633 171.778824,123.358963 180.778351,131.245972 
z"/>
<path fill="#FF7C4B" opacity="1.000000" stroke="none" 
	d="
M979.160522,68.957054 
	C983.547180,69.600647 987.580383,69.879120 991.373047,70.983696 
	C992.877747,71.421936 993.848694,73.693115 995.062683,75.129776 
	C993.337891,75.970619 991.461426,77.754585 989.911926,77.505402 
	C975.562378,75.197540 961.189209,74.095673 946.726929,75.962524 
	C940.483032,76.768509 934.333069,78.336075 928.081848,79.029716 
	C926.318237,79.225426 924.347473,77.553596 922.471680,76.738327 
	C923.901794,75.238998 925.105530,72.790329 926.796997,72.387024 
	C943.881653,68.313423 961.182373,66.708122 979.160522,68.957054 
z"/>
<path fill="#4A4B5F" opacity="1.000000" stroke="none" 
	d="
M221.109436,238.781525 
	C221.251755,260.677490 221.251755,282.157837 221.251755,303.834717 
	C219.008621,303.834717 217.048218,303.834717 214.729889,303.834717 
	C214.729889,282.041992 214.729889,260.318420 214.729889,238.028000 
	C216.835205,238.142059 218.901154,238.253967 221.109436,238.781525 
z"/>
<path fill="#FF7B4B" opacity="1.000000" stroke="none" 
	d="
M1030.041260,71.837967 
	C1034.622925,71.311089 1037.233643,72.249229 1036.884888,77.305244 
	C1036.821167,78.227333 1039.340088,80.210594 1040.635376,80.183846 
	C1045.158569,80.090431 1045.171875,82.713402 1045.187012,86.002274 
	C1045.201538,89.191124 1045.047729,91.693985 1040.801636,91.200211 
	C1037.473755,90.813210 1036.372314,92.693848 1036.664795,95.754440 
	C1037.083740,100.136833 1034.112793,99.881508 1031.140015,99.912247 
	C1028.096313,99.943710 1025.315186,100.054367 1025.834106,95.661301 
	C1026.253784,92.108147 1024.278809,90.833496 1021.019775,91.175987 
	C1016.945068,91.604202 1016.936279,89.004082 1017.011047,86.119171 
	C1017.084717,83.276955 1016.514648,79.994896 1020.958923,80.389503 
	C1025.083008,80.755669 1026.291870,78.798889 1025.878052,75.086754 
	C1025.567627,72.300819 1027.272827,71.690575 1030.041260,71.837967 
z"/>
<path fill="#434559" opacity="1.000000" stroke="none" 
	d="
M603.129883,277.000000 
	C603.129883,263.873901 603.129883,251.247787 603.129883,238.311325 
	C605.515503,238.311325 607.557617,238.311325 610.050110,238.311325 
	C610.050110,258.360992 610.050110,278.300507 610.050110,298.240021 
	C610.050110,300.029877 610.050110,301.819763 610.050110,303.809082 
	C607.666992,303.809082 605.726196,303.809082 603.129883,303.809082 
	C603.129883,295.029938 603.129883,286.264954 603.129883,277.000000 
z"/>
<path fill="#46485C" opacity="1.000000" stroke="none" 
	d="
M455.142883,147.000732 
	C455.142883,156.131653 455.142883,164.762695 455.142883,173.707413 
	C452.832001,173.707413 450.788177,173.707413 448.486328,173.707413 
	C448.486328,158.827698 448.486328,144.079117 448.486328,129.008316 
	C450.576660,129.008316 452.652405,129.008316 455.142853,129.008316 
	C455.142853,134.923340 455.142853,140.712097 455.142883,147.000732 
z"/>
<path fill="#45475B" opacity="1.000000" stroke="none" 
	d="
M537.783203,304.005920 
	C536.022400,304.018524 534.722717,304.018524 533.159546,304.018524 
	C533.159546,288.935944 533.159546,274.174316 533.159546,259.051147 
	C535.135681,259.051147 537.182373,259.051147 539.807495,259.051147 
	C539.807495,272.385712 539.863403,285.643951 539.738281,298.900513 
	C539.722229,300.602661 538.765381,302.295959 537.783203,304.005920 
z"/>
<path fill="#FF7C4C" opacity="1.000000" stroke="none" 
	d="
M842.492554,325.605713 
	C839.996338,319.704346 840.544678,319.013123 845.668884,317.099579 
	C847.174500,316.537323 847.866028,313.795227 849.405212,311.275299 
	C854.656494,309.405579 855.668579,309.976013 857.065063,316.809296 
	C858.867493,317.182892 860.760803,317.575348 862.566162,317.949585 
	C863.681213,325.390533 863.667236,325.412140 857.027405,326.318024 
	C856.591187,329.966644 856.133606,334.152466 850.579956,332.547302 
	C849.577820,332.257660 848.053467,330.950684 848.121948,330.244659 
	C848.533630,326.005035 846.008057,325.628357 842.492554,325.605713 
z"/>
<path fill="#3D3F54" opacity="1.000000" stroke="none" 
	d="
M619.684082,268.019592 
	C619.684021,264.870178 619.684021,262.218994 619.684021,259.164764 
	C621.758728,259.164764 623.650085,259.164764 625.963196,259.164764 
	C625.963196,273.783051 625.963196,288.608856 625.963196,303.718628 
	C624.133972,303.718628 622.223572,303.718628 619.684082,303.718628 
	C619.684082,291.962036 619.684082,280.239929 619.684082,268.019592 
z"/>
<path fill="#3D3F54" opacity="1.000000" stroke="none" 
	d="
M278.378174,298.924194 
	C278.378204,300.732574 278.378204,302.048218 278.378204,303.681213 
	C276.228790,303.681213 274.318176,303.681213 272.043030,303.681213 
	C272.043030,288.935699 272.043030,274.117889 272.043030,259.029297 
	C274.040741,259.029297 275.933899,259.029297 278.378143,259.029297 
	C278.378143,272.291870 278.378143,285.361664 278.378174,298.924194 
z"/>
<path fill="#535568" opacity="1.000000" stroke="none" 
	d="
M321.525726,279.283691 
	C321.430206,281.556152 322.217926,283.858398 318.904633,283.829437 
	C309.957703,283.751251 301.009583,283.810852 292.061951,283.796997 
	C290.928711,283.795258 289.795654,283.681458 288.384064,283.604340 
	C288.384064,281.595428 288.384064,279.850311 288.384064,277.264008 
	C293.533081,277.264008 298.750793,277.264038 303.968536,277.264038 
	C308.442352,277.264069 312.921722,277.139374 317.386719,277.337860 
	C318.778534,277.399750 320.131500,278.335297 321.525726,279.283691 
z"/>
<path fill="#FF7B4B" opacity="1.000000" stroke="none" 
	d="
M1061.560791,125.544098 
	C1056.080322,123.253662 1053.683716,119.895096 1054.671143,115.740128 
	C1055.645874,111.638458 1058.202637,108.976822 1062.657471,108.913483 
	C1067.181763,108.849144 1070.216064,111.033722 1071.379761,115.496124 
	C1072.840942,121.099495 1068.820557,125.394371 1061.560791,125.544098 
z"/>
<path fill="#FF7A4A" opacity="1.000000" stroke="none" 
	d="
M872.637512,364.435974 
	C867.874451,360.369690 866.805237,356.950958 869.029358,353.099426 
	C871.167664,349.396576 874.354126,347.747009 878.631653,348.914398 
	C883.085754,350.129974 885.213196,353.206635 885.002136,357.738708 
	C884.731384,363.551971 879.694946,366.369781 872.637512,364.435974 
z"/>
<path fill="#414357" opacity="1.000000" stroke="none" 
	d="
M1094.167725,412.920227 
	C1094.919067,418.546326 1093.016602,421.958038 1088.889771,422.943939 
	C1084.899536,423.897278 1080.779541,421.946503 1079.380737,418.441772 
	C1077.896240,414.722015 1079.520752,410.524139 1083.138794,408.730499 
	C1087.176636,406.728729 1090.846558,408.014435 1094.167725,412.920227 
z"/>
<path fill="#414357" opacity="1.000000" stroke="none" 
	d="
M1007.929993,412.140869 
	C1010.445190,410.514496 1012.693604,408.457153 1015.164795,408.141083 
	C1019.470886,407.590210 1022.823608,411.167450 1022.937439,415.365479 
	C1023.050842,419.550537 1019.857544,422.869659 1015.506897,423.088898 
	C1011.031982,423.314392 1007.519165,420.571777 1007.168945,416.364685 
	C1007.063660,415.099670 1007.548767,413.785461 1007.929993,412.140869 
z"/>
<path fill="#46485C" opacity="1.000000" stroke="none" 
	d="
M447.862549,117.922379 
	C446.192230,114.133751 446.655792,111.086594 450.636993,110.275963 
	C452.289124,109.939560 455.137756,111.076347 455.987000,112.445717 
	C456.825653,113.798035 456.529022,116.847641 455.484253,118.162445 
	C453.474762,120.691399 450.593475,120.522903 447.862549,117.922379 
z"/>
<path fill="#45475B" opacity="1.000000" stroke="none" 
	d="
M541.349609,244.973724 
	C540.837891,248.798843 538.526611,250.564056 535.452881,249.588867 
	C533.752747,249.049438 531.639526,246.475815 531.649719,244.831070 
	C531.659546,243.224594 533.868103,240.737427 535.582642,240.230286 
	C538.711670,239.304764 540.935669,241.153824 541.349609,244.973724 
z"/>
<path fill="#47495D" opacity="1.000000" stroke="none" 
	d="
M198.529083,173.567642 
	C195.523697,175.636383 192.491501,175.850555 191.000107,172.872238 
	C190.155579,171.185699 190.611771,167.802673 191.857239,166.447205 
	C192.844055,165.373199 196.350464,165.467224 197.977142,166.387543 
	C200.653458,167.901733 200.546677,170.728729 198.529083,173.567642 
z"/>
<path fill="#46485C" opacity="1.000000" stroke="none" 
	d="
M312.887939,174.391296 
	C309.905914,172.040344 309.368622,169.170380 311.716461,166.968063 
	C313.002960,165.761307 316.286896,165.241333 317.735413,166.061844 
	C319.140778,166.857925 320.249969,169.947876 319.892578,171.705826 
	C319.208344,175.071548 316.278290,175.526627 312.887939,174.391296 
z"/>
<path fill="#47495D" opacity="1.000000" stroke="none" 
	d="
M272.084229,240.902802 
	C274.762268,241.202133 277.414368,241.235062 279.301849,242.452942 
	C280.098450,242.966904 279.940338,246.459335 279.016907,247.718155 
	C278.096069,248.973450 275.588867,249.825150 273.927124,249.622757 
	C270.164276,249.164413 269.333740,245.381470 272.084229,240.902802 
z"/>
<path fill="#47495D" opacity="1.000000" stroke="none" 
	d="
M618.346313,246.456024 
	C617.831299,241.890656 619.741760,239.655624 623.952026,240.095917 
	C627.132751,240.428513 628.688049,242.740326 627.912720,245.752625 
	C627.532104,247.231583 625.693604,249.478683 624.655029,249.404907 
	C622.547363,249.255157 620.535034,247.763153 618.346313,246.456024 
z"/>
<path fill="#FFFEFE" opacity="1.000000" stroke="none" 
	d="
M942.310425,266.407043 
	C939.084106,278.256500 936.167542,289.823303 932.958740,301.308502 
	C931.446960,306.719391 929.665527,312.097992 927.461731,317.258636 
	C925.758057,321.248047 922.182556,323.199219 917.743347,322.949188 
	C913.227783,322.694824 911.376404,319.270660 910.678101,315.634186 
	C909.210449,307.991302 907.218323,300.220032 907.369507,292.539398 
	C907.784241,271.469299 900.542969,253.170609 889.463379,235.843140 
	C881.583618,223.519745 873.547913,211.252548 870.374329,196.563660 
	C865.056641,171.951141 874.917358,146.107498 895.112610,132.414719 
	C911.853821,121.063843 933.197327,121.738098 949.063232,134.405991 
	C955.957886,139.910858 962.390259,145.990723 969.186279,151.624023 
	C977.153809,158.228378 985.988281,162.999573 996.644531,163.453018 
	C997.309082,163.481293 997.986511,163.692337 998.631653,163.610733 
	C1002.230164,163.155457 1007.341125,164.336670 1007.528870,158.870132 
	C1007.729065,153.038345 1002.854492,154.622864 999.117432,154.193085 
	C994.253784,153.633713 989.121948,152.826385 984.809204,150.699158 
	C979.219727,147.942169 974.323730,143.779312 969.060852,140.174911 
	C986.096680,121.025711 1015.958374,117.509430 1037.058472,139.236465 
	C1056.617432,159.376526 1060.574341,187.469574 1047.356445,213.545273 
	C1043.825195,220.511414 1040.056274,227.428528 1035.677246,233.880066 
	C1022.461914,253.349777 1015.680115,274.559631 1016.052856,298.214111 
	C1016.150391,304.403320 1014.685974,310.794891 1012.912842,316.790100 
	C1010.774353,324.021088 1003.661255,325.444427 999.305237,319.315704 
	C995.937195,314.577026 993.664001,308.774384 992.084900,303.115295 
	C989.542480,294.004181 988.220581,284.558563 985.884521,275.381226 
	C984.792053,271.089447 983.007446,266.808624 980.718323,263.016815 
	C973.025208,250.273514 957.454651,248.811722 947.246948,259.693176 
	C945.442139,261.617004 944.071411,263.947968 942.310425,266.407043 
z"/>
<path fill="#FEFEFE" opacity="1.000000" stroke="none" 
	d="
M655.427917,442.080170 
	C654.390686,458.897858 646.212585,464.234100 626.106934,461.519043 
	C626.106934,449.158356 626.106934,436.766815 626.106934,424.403992 
	C644.755859,421.091034 653.999451,426.565613 655.427917,442.080170 
z"/>
<path fill="#FBFBFB" opacity="1.000000" stroke="none" 
	d="
M851.971313,457.520264 
	C849.346130,464.581360 843.789490,467.796326 838.040283,465.486267 
	C836.341553,464.803680 834.235779,462.723724 834.133606,461.164948 
	C834.033936,459.645508 835.962830,457.044861 837.520020,456.549316 
	C841.580688,455.257080 845.912964,454.751953 850.174194,454.246490 
	C850.666565,454.188110 851.393616,456.107880 851.971313,457.520264 
z"/>
<path fill="#F6F6F7" opacity="1.000000" stroke="none" 
	d="
M704.817627,439.003052 
	C706.492554,441.709503 707.858643,444.190521 709.637268,447.420715 
	C702.036926,447.420715 695.686829,447.420715 689.329529,447.420715 
	C689.589905,438.865570 696.505249,434.972687 704.817627,439.003052 
z"/>
<path fill="#FDFDFD" opacity="1.000000" stroke="none" 
	d="
M132.991638,129.336243 
	C136.342941,136.664886 136.564697,143.884140 134.635864,151.175583 
	C132.248764,160.199478 124.864395,166.271057 114.967140,166.915329 
	C108.507927,167.335800 101.999138,166.994629 95.096634,166.994629 
	C95.096634,150.669708 95.096634,134.310883 95.096634,116.986481 
	C102.987785,117.459023 110.780602,117.490341 118.439453,118.519096 
	C124.813164,119.375221 129.746262,123.146782 132.991638,129.336243 
z"/>
<path fill="#FCFCFD" opacity="1.000000" stroke="none" 
	d="
M384.490784,270.729980 
	C390.608887,263.159271 398.939575,261.167664 406.385468,265.251373 
	C413.793182,269.314148 417.121735,279.048340 414.127014,287.891022 
	C411.347992,296.096802 404.094666,300.431976 395.359741,299.107941 
	C384.926910,297.526550 378.725342,285.671326 382.599945,274.652740 
	C383.038727,273.404907 383.700562,272.235474 384.490784,270.729980 
z"/>
<path fill="#FBFBFB" opacity="1.000000" stroke="none" 
	d="
M565.837158,299.573669 
	C563.163391,299.177277 560.534424,299.308899 558.710205,298.161346 
	C556.691101,296.891113 554.149414,294.459290 554.136108,292.517578 
	C554.120850,290.292786 556.153015,286.865814 558.146606,286.056122 
	C562.676514,284.216248 567.706665,283.549591 572.574585,282.622101 
	C575.478577,282.068817 578.460510,281.924530 581.380737,281.599365 
	C583.073853,291.715759 577.681580,297.972260 565.837158,299.573669 
z"/>
<path fill="#FFFCFA" opacity="1.000000" stroke="none" 
	d="
M1080.399414,83.455826 
	C1085.509888,78.542984 1090.317017,73.835678 1094.720581,69.523514 
	C1099.777100,74.641670 1105.603516,80.538979 1111.140991,86.143860 
	C1105.874634,91.443665 1099.925049,97.430992 1094.610718,102.779007 
	C1089.377319,97.466370 1083.616089,91.617844 1077.551147,85.461037 
	C1077.859375,85.243019 1078.977783,84.452194 1080.399414,83.455826 
z"/>
<path fill="#F6F6F7" opacity="1.000000" stroke="none" 
	d="
M446.114807,263.847778 
	C456.945038,261.751770 464.225403,266.929993 464.966644,277.279480 
	C455.104095,277.279480 445.257202,277.279480 434.866180,277.279480 
	C435.912354,270.636078 439.319122,266.134583 446.114807,263.847778 
z"/>
<path fill="#FFFCFA" opacity="1.000000" stroke="none" 
	d="
M822.092773,368.080627 
	C820.844421,367.711945 819.541077,367.262115 818.800415,366.353516 
	C816.812073,363.914490 815.064270,361.279297 813.594360,359.239960 
	C815.477112,357.381500 818.464294,354.432983 821.078064,351.852997 
	C823.424011,354.299561 826.344055,357.344849 829.268799,360.395050 
	C827.447754,362.325897 824.871033,365.058105 822.092773,368.080627 
z"/>
</svg>